%TF.GenerationSoftware,KiCad,Pcbnew,(5.1.10)-1*%
%TF.CreationDate,2021-10-29T17:34:37+08:00*%
%TF.ProjectId,project,70726f6a-6563-4742-9e6b-696361645f70,rev?*%
%TF.SameCoordinates,Original*%
%TF.FileFunction,Copper,L2,Bot*%
%TF.FilePolarity,Positive*%
%FSLAX46Y46*%
G04 Gerber Fmt 4.6, Leading zero omitted, Abs format (unit mm)*
G04 Created by KiCad (PCBNEW (5.1.10)-1) date 2021-10-29 17:34:37*
%MOMM*%
%LPD*%
G01*
G04 APERTURE LIST*
%TA.AperFunction,ComponentPad*%
%ADD10O,1.727200X1.727200*%
%TD*%
%TA.AperFunction,ComponentPad*%
%ADD11R,1.727200X1.727200*%
%TD*%
%TA.AperFunction,ComponentPad*%
%ADD12O,1.700000X1.700000*%
%TD*%
%TA.AperFunction,ComponentPad*%
%ADD13R,1.700000X1.700000*%
%TD*%
%TA.AperFunction,ComponentPad*%
%ADD14O,1.050000X2.100000*%
%TD*%
%TA.AperFunction,ComponentPad*%
%ADD15O,0.800000X1.600000*%
%TD*%
%TA.AperFunction,ComponentPad*%
%ADD16O,1.350000X2.700000*%
%TD*%
%TA.AperFunction,ComponentPad*%
%ADD17O,1.650000X3.300000*%
%TD*%
%TA.AperFunction,ViaPad*%
%ADD18C,3.200000*%
%TD*%
%TA.AperFunction,ViaPad*%
%ADD19C,0.600000*%
%TD*%
%TA.AperFunction,Conductor*%
%ADD20C,0.250000*%
%TD*%
%TA.AperFunction,Conductor*%
%ADD21C,0.254000*%
%TD*%
%TA.AperFunction,Conductor*%
%ADD22C,0.350000*%
%TD*%
%ADD23C,0.350000*%
%ADD24O,0.600000X1.700000*%
%ADD25O,0.600000X1.200000*%
G04 APERTURE END LIST*
D10*
%TO.P,P2,46*%
%TO.N,/Data1*%
X167170000Y-118262400D03*
%TO.P,P2,45*%
%TO.N,/Data0*%
X164630000Y-118262400D03*
%TO.P,P2,44*%
%TO.N,/Data3*%
X167170000Y-115722400D03*
%TO.P,P2,43*%
%TO.N,/Data2*%
X164630000Y-115722400D03*
%TO.P,P2,42*%
%TO.N,/Data5*%
X167170000Y-113182400D03*
%TO.P,P2,41*%
%TO.N,/Data4*%
X164630000Y-113182400D03*
%TO.P,P2,40*%
%TO.N,/Data7*%
X167170000Y-110642400D03*
%TO.P,P2,39*%
%TO.N,/Data6*%
X164630000Y-110642400D03*
%TO.P,P2,38*%
%TO.N,/Data9*%
X167170000Y-108102400D03*
%TO.P,P2,37*%
%TO.N,/Data8*%
X164630000Y-108102400D03*
%TO.P,P2,36*%
%TO.N,/Data11*%
X167170000Y-105562400D03*
%TO.P,P2,35*%
%TO.N,/Data10*%
X164630000Y-105562400D03*
%TO.P,P2,34*%
%TO.N,/Data13*%
X167170000Y-103022400D03*
%TO.P,P2,33*%
%TO.N,/Data12*%
X164630000Y-103022400D03*
%TO.P,P2,32*%
%TO.N,/Data15*%
X167170000Y-100482400D03*
%TO.P,P2,31*%
%TO.N,/Data14*%
X164630000Y-100482400D03*
%TO.P,P2,30*%
%TO.N,/DATAEN*%
X167170000Y-97942400D03*
%TO.P,P2,29*%
%TO.N,/HSYNC*%
X164630000Y-97942400D03*
%TO.P,P2,28*%
%TO.N,/PCLK*%
X167170000Y-95402400D03*
%TO.P,P2,27*%
%TO.N,/VSYNC*%
X164630000Y-95402400D03*
%TO.P,P2,26*%
%TO.N,/GPIO_INIT_DONE*%
X167170000Y-92862400D03*
%TO.P,P2,25*%
%TO.N,Net-(P2-Pad25)*%
X164630000Y-92862400D03*
%TO.P,P2,24*%
%TO.N,Net-(P2-Pad24)*%
X167170000Y-90322400D03*
%TO.P,P2,23*%
%TO.N,Net-(P2-Pad23)*%
X164630000Y-90322400D03*
%TO.P,P2,22*%
%TO.N,Net-(P2-Pad22)*%
X167170000Y-87782400D03*
%TO.P,P2,21*%
%TO.N,Net-(P2-Pad21)*%
X164630000Y-87782400D03*
%TO.P,P2,20*%
%TO.N,Net-(P2-Pad20)*%
X167170000Y-85242400D03*
%TO.P,P2,19*%
%TO.N,/Data23*%
X164630000Y-85242400D03*
%TO.P,P2,18*%
%TO.N,/GPIO5*%
X167170000Y-82702400D03*
%TO.P,P2,17*%
%TO.N,/Data20*%
X164630000Y-82702400D03*
%TO.P,P2,16*%
%TO.N,/Data17*%
X167170000Y-80162400D03*
%TO.P,P2,15*%
%TO.N,/Data16*%
X164630000Y-80162400D03*
%TO.P,P2,14*%
%TO.N,/Data21*%
X167170000Y-77622400D03*
%TO.P,P2,13*%
%TO.N,/Data22*%
X164630000Y-77622400D03*
%TO.P,P2,12*%
%TO.N,/Data19*%
X167170000Y-75082400D03*
%TO.P,P2,11*%
%TO.N,/Data18*%
X164630000Y-75082400D03*
%TO.P,P2,10*%
%TO.N,Net-(P2-Pad10)*%
X167170000Y-72542400D03*
%TO.P,P2,9*%
%TO.N,Net-(P2-Pad9)*%
X164630000Y-72542400D03*
%TO.P,P2,8*%
%TO.N,Net-(P2-Pad8)*%
X167170000Y-70002400D03*
%TO.P,P2,7*%
%TO.N,Net-(P2-Pad7)*%
X164630000Y-70002400D03*
%TO.P,P2,6*%
%TO.N,Net-(P2-Pad6)*%
X167170000Y-67462400D03*
%TO.P,P2,5*%
%TO.N,Net-(P2-Pad5)*%
X164630000Y-67462400D03*
%TO.P,P2,4*%
%TO.N,Net-(P2-Pad4)*%
X167170000Y-64922400D03*
%TO.P,P2,3*%
%TO.N,Net-(P2-Pad3)*%
X164630000Y-64922400D03*
%TO.P,P2,2*%
%TO.N,Net-(P2-Pad2)*%
X167170000Y-62382400D03*
D11*
%TO.P,P2,1*%
%TO.N,Net-(P2-Pad1)*%
X164630000Y-62382400D03*
%TD*%
D12*
%TO.P,J3,16*%
%TO.N,/SCDT*%
X161201000Y-127914000D03*
%TO.P,J3,15*%
%TO.N,GND*%
X161201000Y-130454000D03*
%TO.P,J3,14*%
%TO.N,/OCK_INV*%
X158661000Y-127914000D03*
%TO.P,J3,13*%
%TO.N,GND*%
X158661000Y-130454000D03*
%TO.P,J3,12*%
%TO.N,/PDO#*%
X156121000Y-127914000D03*
%TO.P,J3,11*%
%TO.N,GND*%
X156121000Y-130454000D03*
%TO.P,J3,10*%
%TO.N,/STAG#*%
X153581000Y-127914000D03*
%TO.P,J3,9*%
%TO.N,GND*%
X153581000Y-130454000D03*
%TO.P,J3,8*%
%TO.N,/PIXS*%
X151041000Y-127914000D03*
%TO.P,J3,7*%
%TO.N,GND*%
X151041000Y-130454000D03*
%TO.P,J3,6*%
%TO.N,/ST*%
X148501000Y-127914000D03*
%TO.P,J3,5*%
%TO.N,GND*%
X148501000Y-130454000D03*
%TO.P,J3,4*%
%TO.N,/PD#*%
X145961000Y-127914000D03*
%TO.P,J3,3*%
%TO.N,GND*%
X145961000Y-130454000D03*
%TO.P,J3,2*%
%TO.N,/DFO*%
X143421000Y-127914000D03*
D13*
%TO.P,J3,1*%
%TO.N,GND*%
X143421000Y-130454000D03*
%TD*%
D12*
%TO.P,J6,8*%
%TO.N,/PC7*%
X122720000Y-99212400D03*
%TO.P,J6,7*%
%TO.N,/PC6*%
X122720000Y-96672400D03*
%TO.P,J6,6*%
%TO.N,/PC5*%
X122720000Y-94132400D03*
%TO.P,J6,5*%
%TO.N,/PC4*%
X122720000Y-91592400D03*
%TO.P,J6,4*%
%TO.N,/PC3*%
X122720000Y-89052400D03*
%TO.P,J6,3*%
%TO.N,/PC2*%
X122720000Y-86512400D03*
%TO.P,J6,2*%
%TO.N,/PC1*%
X122720000Y-83972400D03*
D13*
%TO.P,J6,1*%
%TO.N,/PC0*%
X122720000Y-81432400D03*
%TD*%
D12*
%TO.P,J8,4*%
%TO.N,GND*%
X135293000Y-55143400D03*
%TO.P,J8,3*%
%TO.N,USB_DN*%
X132753000Y-55143400D03*
%TO.P,J8,2*%
%TO.N,USB_DP*%
X130213000Y-55143400D03*
D13*
%TO.P,J8,1*%
%TO.N,BOARD_5V*%
X127673000Y-55143400D03*
%TD*%
D12*
%TO.P,J9,8*%
%TO.N,/PB15*%
X160693000Y-86766000D03*
%TO.P,J9,7*%
%TO.N,/PB14*%
X160693000Y-89306000D03*
%TO.P,J9,6*%
%TO.N,/PB13*%
X160693000Y-91846000D03*
%TO.P,J9,5*%
%TO.N,/PB12*%
X160693000Y-94386000D03*
%TO.P,J9,4*%
%TO.N,/PB11*%
X160693000Y-96926000D03*
%TO.P,J9,3*%
%TO.N,/PB10*%
X160693000Y-99466000D03*
%TO.P,J9,2*%
%TO.N,/PB9*%
X160693000Y-102006000D03*
D13*
%TO.P,J9,1*%
%TO.N,/PB8*%
X160693000Y-104546000D03*
%TD*%
D12*
%TO.P,J2,3*%
%TO.N,/SCDT*%
X148374000Y-58699400D03*
%TO.P,J2,2*%
%TO.N,/PDO#*%
X148374000Y-61239400D03*
D13*
%TO.P,J2,1*%
%TO.N,Net-(J2-Pad1)*%
X148374000Y-63779400D03*
%TD*%
D12*
%TO.P,J4,14*%
%TO.N,/RSVD*%
X122720000Y-102992000D03*
%TO.P,J4,13*%
%TO.N,/PCLK*%
X125260000Y-102992000D03*
%TO.P,J4,12*%
%TO.N,Net-(J4-Pad12)*%
X122720000Y-105532000D03*
%TO.P,J4,11*%
%TO.N,/HSYNC*%
X125260000Y-105532000D03*
%TO.P,J4,10*%
%TO.N,Net-(J4-Pad10)*%
X122720000Y-108072000D03*
%TO.P,J4,9*%
%TO.N,/VSYNC*%
X125260000Y-108072000D03*
%TO.P,J4,8*%
%TO.N,GND*%
X122720000Y-110612000D03*
%TO.P,J4,7*%
%TO.N,/DATAEN*%
X125260000Y-110612000D03*
%TO.P,J4,6*%
%TO.N,Net-(J4-Pad6)*%
X122720000Y-113152000D03*
%TO.P,J4,5*%
%TO.N,/CTL3*%
X125260000Y-113152000D03*
%TO.P,J4,4*%
%TO.N,Net-(J4-Pad4)*%
X122720000Y-115692000D03*
%TO.P,J4,3*%
%TO.N,/CTL2*%
X125260000Y-115692000D03*
%TO.P,J4,2*%
%TO.N,Net-(J4-Pad2)*%
X122720000Y-118232000D03*
D13*
%TO.P,J4,1*%
%TO.N,/CTL1*%
X125260000Y-118232000D03*
%TD*%
D12*
%TO.P,J5,4*%
%TO.N,GND*%
X135039000Y-60731400D03*
%TO.P,J5,3*%
%TO.N,/PA14*%
X137579000Y-60731400D03*
%TO.P,J5,2*%
%TO.N,/PA13*%
X140119000Y-60731400D03*
D13*
%TO.P,J5,1*%
%TO.N,+3.3V_2*%
X142659000Y-60731400D03*
%TD*%
D14*
%TO.P,J7,S2*%
%TO.N,GND*%
X127290000Y-49804400D03*
D15*
%TO.P,J7,S4*%
X127290000Y-45624400D03*
%TO.P,J7,S3*%
X135930000Y-45624400D03*
D14*
%TO.P,J7,S1*%
X135930000Y-49804400D03*
%TD*%
D16*
%TO.P,J1,S4*%
%TO.N,N/C*%
X144172000Y-47581400D03*
%TO.P,J1,S3*%
X158672000Y-47581400D03*
D17*
%TO.P,J1,S2*%
X158672000Y-53541400D03*
%TO.P,J1,S1*%
X144172000Y-53541400D03*
%TD*%
D10*
%TO.P,P1,46*%
%TO.N,GND*%
X118910000Y-118262400D03*
%TO.P,P1,45*%
X116370000Y-118262400D03*
%TO.P,P1,44*%
X118910000Y-115722400D03*
%TO.P,P1,43*%
%TO.N,/HOST_PRESENTZ*%
X116370000Y-115722400D03*
%TO.P,P1,42*%
%TO.N,Net-(P1-Pad42)*%
X118910000Y-113182400D03*
%TO.P,P1,41*%
%TO.N,Net-(P1-Pad41)*%
X116370000Y-113182400D03*
%TO.P,P1,40*%
%TO.N,Net-(P1-Pad40)*%
X118910000Y-110642400D03*
%TO.P,P1,39*%
%TO.N,Net-(P1-Pad39)*%
X116370000Y-110642400D03*
%TO.P,P1,38*%
%TO.N,Net-(P1-Pad38)*%
X118910000Y-108102400D03*
%TO.P,P1,37*%
%TO.N,Net-(P1-Pad37)*%
X116370000Y-108102400D03*
%TO.P,P1,36*%
%TO.N,Net-(P1-Pad36)*%
X118910000Y-105562400D03*
%TO.P,P1,35*%
%TO.N,Net-(P1-Pad35)*%
X116370000Y-105562400D03*
%TO.P,P1,34*%
%TO.N,Net-(P1-Pad34)*%
X118910000Y-103022400D03*
%TO.P,P1,33*%
%TO.N,Net-(P1-Pad33)*%
X116370000Y-103022400D03*
%TO.P,P1,32*%
%TO.N,Net-(P1-Pad32)*%
X118910000Y-100482400D03*
%TO.P,P1,31*%
%TO.N,Net-(P1-Pad31)*%
X116370000Y-100482400D03*
%TO.P,P1,30*%
%TO.N,Net-(P1-Pad30)*%
X118910000Y-97942400D03*
%TO.P,P1,29*%
%TO.N,Net-(P1-Pad29)*%
X116370000Y-97942400D03*
%TO.P,P1,28*%
%TO.N,Net-(P1-Pad28)*%
X118910000Y-95402400D03*
%TO.P,P1,27*%
%TO.N,Net-(P1-Pad27)*%
X116370000Y-95402400D03*
%TO.P,P1,26*%
%TO.N,Net-(P1-Pad26)*%
X118910000Y-92862400D03*
%TO.P,P1,25*%
%TO.N,Net-(P1-Pad25)*%
X116370000Y-92862400D03*
%TO.P,P1,24*%
%TO.N,Net-(P1-Pad24)*%
X118910000Y-90322400D03*
%TO.P,P1,23*%
%TO.N,Net-(P1-Pad23)*%
X116370000Y-90322400D03*
%TO.P,P1,22*%
%TO.N,Net-(P1-Pad22)*%
X118910000Y-87782400D03*
%TO.P,P1,21*%
%TO.N,Net-(P1-Pad21)*%
X116370000Y-87782400D03*
%TO.P,P1,20*%
%TO.N,EXT_SDA*%
X118910000Y-85242400D03*
%TO.P,P1,19*%
%TO.N,EXT_SCL*%
X116370000Y-85242400D03*
%TO.P,P1,18*%
%TO.N,Net-(P1-Pad18)*%
X118910000Y-82702400D03*
%TO.P,P1,17*%
%TO.N,Net-(P1-Pad17)*%
X116370000Y-82702400D03*
%TO.P,P1,16*%
%TO.N,Net-(P1-Pad16)*%
X118910000Y-80162400D03*
%TO.P,P1,15*%
%TO.N,/PA1*%
X116370000Y-80162400D03*
%TO.P,P1,14*%
%TO.N,Net-(P1-Pad14)*%
X118910000Y-77622400D03*
%TO.P,P1,13*%
%TO.N,Net-(P1-Pad13)*%
X116370000Y-77622400D03*
%TO.P,P1,12*%
%TO.N,Net-(P1-Pad12)*%
X118910000Y-75082400D03*
%TO.P,P1,11*%
%TO.N,Net-(P1-Pad11)*%
X116370000Y-75082400D03*
%TO.P,P1,10*%
%TO.N,Net-(P1-Pad10)*%
X118910000Y-72542400D03*
%TO.P,P1,9*%
%TO.N,Net-(P1-Pad9)*%
X116370000Y-72542400D03*
%TO.P,P1,8*%
%TO.N,Net-(P1-Pad8)*%
X118910000Y-70002400D03*
%TO.P,P1,7*%
%TO.N,Net-(P1-Pad7)*%
X116370000Y-70002400D03*
%TO.P,P1,6*%
%TO.N,Net-(P1-Pad6)*%
X118910000Y-67462400D03*
%TO.P,P1,5*%
%TO.N,Net-(P1-Pad5)*%
X116370000Y-67462400D03*
%TO.P,P1,4*%
%TO.N,Net-(P1-Pad4)*%
X118910000Y-64922400D03*
%TO.P,P1,3*%
%TO.N,/VINTF*%
X116370000Y-64922400D03*
%TO.P,P1,2*%
%TO.N,GND*%
X118910000Y-62382400D03*
D11*
%TO.P,P1,1*%
X116370000Y-62382400D03*
%TD*%
D18*
%TO.N,GND*%
X118465100Y-128232400D03*
X165075100Y-128232400D03*
X165075100Y-46697400D03*
X118465100Y-46697400D03*
D19*
%TO.N,BOARD_5V*%
X127750300Y-64516400D03*
%TO.N,GND*%
X125387100Y-80289400D03*
X124752100Y-80289400D03*
X139595700Y-87702700D03*
X122720000Y-68666200D03*
X147547000Y-56237000D03*
X161111600Y-55209400D03*
X149664700Y-56996200D03*
X138711900Y-89509300D03*
X131383300Y-91343800D03*
X134537100Y-90211700D03*
X135648800Y-88951900D03*
X126784100Y-80289400D03*
X127546100Y-80289400D03*
X128308100Y-80289400D03*
X129070100Y-80289400D03*
X129832100Y-80289400D03*
X130594100Y-80289400D03*
X126022100Y-80289400D03*
X130594100Y-81051400D03*
X130594100Y-81813400D03*
X130594100Y-82575400D03*
X130594100Y-83337400D03*
%TO.N,+3.3V_1*%
X131991000Y-72688300D03*
X147461500Y-65334000D03*
X155275400Y-59609300D03*
X146611100Y-121929000D03*
X154530000Y-96013100D03*
X146764800Y-93437200D03*
X143548000Y-121985500D03*
X136447700Y-124085600D03*
%TO.N,Net-(C20-Pad1)*%
X130870200Y-85713300D03*
X128134700Y-88591600D03*
%TO.N,STM_NRST*%
X121712500Y-56545700D03*
X127843600Y-65442000D03*
X135330100Y-77304900D03*
X133504700Y-83683500D03*
%TO.N,+3.3V_2*%
X135014400Y-69112300D03*
%TO.N,EXT_SDA*%
X154715900Y-56113800D03*
X137864300Y-79622800D03*
X156825400Y-55875600D03*
%TO.N,EXT_SCL*%
X154131700Y-58551100D03*
X137781700Y-72032500D03*
%TO.N,/RXC-*%
X146870600Y-107863500D03*
X149524100Y-98258500D03*
X155338900Y-87764000D03*
X154652100Y-61807600D03*
%TO.N,/RXC+*%
X145729400Y-122320400D03*
X131031000Y-125456300D03*
%TO.N,/RX0-*%
X143604000Y-118499200D03*
X125171600Y-119640000D03*
X120306300Y-77619200D03*
X141169200Y-58242500D03*
%TO.N,/RX0+*%
X149764000Y-56144000D03*
X120117600Y-74003600D03*
X127443000Y-116946900D03*
X144520300Y-118562800D03*
%TO.N,/RX1-*%
X121712700Y-101276800D03*
X145481800Y-71144800D03*
%TO.N,/RX1+*%
X150040800Y-93283400D03*
X131018600Y-105745400D03*
X131018600Y-117317900D03*
X142177400Y-119031600D03*
%TO.N,/RX2-*%
X139967200Y-118549000D03*
X129203600Y-117317900D03*
X121322700Y-78790400D03*
X144924500Y-56720700D03*
%TO.N,/RX2+*%
X138611300Y-115219100D03*
X139193700Y-124769600D03*
X114990700Y-77877500D03*
X142618000Y-53513000D03*
%TO.N,/SCDT*%
X149239300Y-114614500D03*
X155586200Y-122844500D03*
%TO.N,/PDO#*%
X143009700Y-98105800D03*
X152541900Y-114729000D03*
%TO.N,/RSVD*%
X148835400Y-121882200D03*
%TO.N,/PCLK*%
X133688100Y-103052800D03*
%TO.N,/HSYNC*%
X137012900Y-103763500D03*
%TO.N,/VSYNC*%
X137887000Y-107416700D03*
X128956400Y-103100200D03*
%TO.N,/DATAEN*%
X158480300Y-99447200D03*
X138926400Y-106885600D03*
%TO.N,/CTL3*%
X140878600Y-106897200D03*
%TO.N,/CTL2*%
X140897100Y-107764100D03*
%TO.N,/CTL1*%
X141059500Y-108893900D03*
%TO.N,/PC7*%
X144784000Y-88222900D03*
%TO.N,/PC6*%
X142100600Y-88516400D03*
%TO.N,/PC5*%
X138037900Y-91147100D03*
%TO.N,/PC4*%
X137136100Y-91152500D03*
%TO.N,/PB15*%
X145378800Y-88851900D03*
%TO.N,/PB14*%
X144883700Y-89513600D03*
%TO.N,/PB13*%
X144794600Y-90314000D03*
%TO.N,/PB12*%
X144670200Y-92015000D03*
%TO.N,/PB11*%
X142053200Y-93581700D03*
%TO.N,/PB10*%
X140264100Y-91160800D03*
X157898700Y-91082000D03*
%TO.N,/PB9*%
X137204400Y-86545900D03*
X157273400Y-90423400D03*
%TO.N,/PB8*%
X138000600Y-86971600D03*
X156489400Y-90809000D03*
%TO.N,/PA1*%
X130880400Y-89712800D03*
%TO.N,/Data18*%
X147473600Y-106101400D03*
X159323100Y-98349400D03*
%TO.N,/Data22*%
X154777900Y-85612700D03*
%TO.N,/Data21*%
X145616100Y-106068200D03*
X150414500Y-96731300D03*
X155953000Y-87138700D03*
%TO.N,/Data16*%
X160874400Y-84171600D03*
%TO.N,/Data20*%
X153602600Y-87818800D03*
%TO.N,/Data23*%
X148040000Y-106705200D03*
X155717800Y-100474500D03*
%TO.N,/GPIO_INIT_DONE*%
X133446700Y-89650900D03*
%TO.N,/Data14*%
X150241400Y-103930300D03*
%TO.N,/Data15*%
X151015700Y-103174600D03*
%TO.N,/Data13*%
X152657700Y-105727100D03*
%TO.N,/Data8*%
X152594800Y-108909400D03*
%TO.N,/Data9*%
X150006600Y-108545600D03*
%TO.N,/Data7*%
X150024300Y-110710400D03*
%TO.N,/Data5*%
X150021700Y-111556400D03*
%TO.N,/Data3*%
X149942900Y-112375600D03*
%TO.N,/Data0*%
X150028400Y-113626300D03*
%TO.N,/Data1*%
X152604000Y-113698800D03*
%TO.N,/DFO*%
X149995500Y-119087200D03*
X146268800Y-95394700D03*
X137950900Y-99996500D03*
%TO.N,/PD#*%
X138967500Y-100151200D03*
X135244400Y-98409500D03*
X148464100Y-91178500D03*
X149592300Y-118249600D03*
%TO.N,/ST*%
X149593900Y-117411800D03*
X145429000Y-97119100D03*
X139422100Y-99165400D03*
%TO.N,/PIXS*%
X141443900Y-100404500D03*
%TO.N,/STAG#*%
X149691500Y-115436400D03*
X148842300Y-111189200D03*
X141170800Y-98353900D03*
X147595700Y-96507200D03*
%TO.N,/OCK_INV*%
X150592600Y-124715400D03*
X143914900Y-98506400D03*
%TO.N,USER_LED*%
X139596300Y-77867400D03*
X142214200Y-84443100D03*
%TO.N,/PA6*%
X133107600Y-96257600D03*
X136605600Y-93800300D03*
%TO.N,HDMI_5V*%
X149092200Y-60021800D03*
X155328200Y-56811600D03*
%TD*%
D20*
%TO.N,BOARD_5V*%
X127673000Y-55143400D02*
X127673000Y-56318700D01*
X127673000Y-56318700D02*
X127750300Y-56396000D01*
X127750300Y-56396000D02*
X127750300Y-64516400D01*
%TO.N,GND*%
X118910000Y-63571300D02*
X119281500Y-63571300D01*
X119281500Y-63571300D02*
X122720000Y-67009800D01*
X122720000Y-67009800D02*
X122720000Y-68666200D01*
X134537100Y-90211700D02*
X133405000Y-91343800D01*
X133405000Y-91343800D02*
X131383300Y-91343800D01*
X135648800Y-89203400D02*
X135545400Y-89203400D01*
X135545400Y-89203400D02*
X134537100Y-90211700D01*
X138406000Y-89203400D02*
X138711900Y-89509300D01*
X135648800Y-89203400D02*
X138406000Y-89203400D01*
X138406000Y-89203400D02*
X138406000Y-88892400D01*
X138406000Y-88892400D02*
X139595700Y-87702700D01*
X118910000Y-62382400D02*
X118910000Y-63571300D01*
X116370000Y-62382400D02*
X118910000Y-62382400D01*
X147547000Y-56237000D02*
X147403500Y-56093500D01*
X147403500Y-56093500D02*
X137418400Y-56093500D01*
X137418400Y-56093500D02*
X136468300Y-55143400D01*
X149664700Y-56996200D02*
X148905500Y-56237000D01*
X148905500Y-56237000D02*
X147547000Y-56237000D01*
X135293000Y-55143400D02*
X136468300Y-55143400D01*
X151041000Y-130454000D02*
X153581000Y-130454000D01*
X148501000Y-130454000D02*
X151041000Y-130454000D01*
X135930000Y-49804400D02*
X135930000Y-45624400D01*
X149664700Y-56996200D02*
X149973600Y-56996200D01*
X149973600Y-56996200D02*
X152234800Y-54735000D01*
X152234800Y-54735000D02*
X157300600Y-54735000D01*
X157300600Y-54735000D02*
X158084100Y-55518500D01*
X158084100Y-55518500D02*
X160802500Y-55518500D01*
X160802500Y-55518500D02*
X161111600Y-55209400D01*
X156121000Y-130454000D02*
X158661000Y-130454000D01*
X135648800Y-88951900D02*
X135648800Y-89203400D01*
X142245700Y-130454000D02*
X132290500Y-130454000D01*
X132290500Y-130454000D02*
X120098900Y-118262400D01*
X145961000Y-130454000D02*
X148501000Y-130454000D01*
X118910000Y-118262400D02*
X120098900Y-118262400D01*
X143421000Y-130454000D02*
X142245700Y-130454000D01*
X122720000Y-111787300D02*
X122242400Y-111787300D01*
X122242400Y-111787300D02*
X119496200Y-114533500D01*
X119496200Y-114533500D02*
X118910000Y-114533500D01*
X145961000Y-130454000D02*
X143421000Y-130454000D01*
X116370000Y-118262400D02*
X118910000Y-118262400D01*
X158661000Y-130454000D02*
X161201000Y-130454000D01*
X118910000Y-115722400D02*
X118910000Y-114533500D01*
X122720000Y-110612000D02*
X122720000Y-111787300D01*
X127290000Y-45624400D02*
X135930000Y-45624400D01*
%TO.N,+3.3V_1*%
X147461500Y-65334000D02*
X140107200Y-72688300D01*
X140107200Y-72688300D02*
X131991000Y-72688300D01*
X147461500Y-65334000D02*
X149334500Y-65334000D01*
X149334500Y-65334000D02*
X155059200Y-59609300D01*
X155059200Y-59609300D02*
X155275400Y-59609300D01*
X154530000Y-96013100D02*
X153290200Y-94773300D01*
X153290200Y-94773300D02*
X148100900Y-94773300D01*
X148100900Y-94773300D02*
X146764800Y-93437200D01*
X143548000Y-121985500D02*
X143843200Y-121690300D01*
X143843200Y-121690300D02*
X146372400Y-121690300D01*
X146372400Y-121690300D02*
X146611100Y-121929000D01*
X136447700Y-124085600D02*
X137762100Y-125400000D01*
X137762100Y-125400000D02*
X140133500Y-125400000D01*
X140133500Y-125400000D02*
X143548000Y-121985500D01*
%TO.N,Net-(C20-Pad1)*%
X130870200Y-85713300D02*
X128134700Y-88448800D01*
X128134700Y-88448800D02*
X128134700Y-88591600D01*
%TO.N,STM_NRST*%
X121712500Y-56545700D02*
X121712500Y-59449700D01*
X121712500Y-59449700D02*
X127704800Y-65442000D01*
X127704800Y-65442000D02*
X127843600Y-65442000D01*
X133504700Y-83683500D02*
X133504700Y-79130300D01*
X133504700Y-79130300D02*
X135330100Y-77304900D01*
%TO.N,+3.3V_2*%
X142659000Y-60731400D02*
X142659000Y-61906700D01*
X142659000Y-61906700D02*
X142220000Y-61906700D01*
X142220000Y-61906700D02*
X135014400Y-69112300D01*
%TO.N,EXT_SDA*%
X156109800Y-56157300D02*
X156543700Y-56157300D01*
X156543700Y-56157300D02*
X156825400Y-55875600D01*
X137864300Y-79622800D02*
X137864300Y-77640100D01*
X137864300Y-77640100D02*
X155112100Y-60392300D01*
X155112100Y-60392300D02*
X155376800Y-60392300D01*
X155376800Y-60392300D02*
X156109800Y-59659300D01*
X156109800Y-59659300D02*
X156109800Y-56157300D01*
X154715900Y-56113800D02*
X156066300Y-56113800D01*
X156066300Y-56113800D02*
X156109800Y-56157300D01*
X137864300Y-79622800D02*
X137864300Y-80256800D01*
X137864300Y-80256800D02*
X133764200Y-84356900D01*
X133764200Y-84356900D02*
X131035700Y-84356900D01*
X131035700Y-84356900D02*
X130150200Y-85242400D01*
X130150200Y-85242400D02*
X118910000Y-85242400D01*
%TO.N,EXT_SCL*%
X154131700Y-58551100D02*
X150078800Y-62604000D01*
X150078800Y-62604000D02*
X147210200Y-62604000D01*
X147210200Y-62604000D02*
X137781700Y-72032500D01*
X116370000Y-84053500D02*
X115998400Y-84053500D01*
X115998400Y-84053500D02*
X115181100Y-83236200D01*
X115181100Y-83236200D02*
X115181100Y-79659400D01*
X115181100Y-79659400D02*
X115893400Y-78947100D01*
X115893400Y-78947100D02*
X120514400Y-78947100D01*
X120514400Y-78947100D02*
X120988500Y-79421200D01*
X120988500Y-79421200D02*
X123184700Y-79421200D01*
X123184700Y-79421200D02*
X130573400Y-72032500D01*
X130573400Y-72032500D02*
X137781700Y-72032500D01*
X116370000Y-85242400D02*
X116370000Y-84053500D01*
%TO.N,/RXC-*%
X155338900Y-87764000D02*
X154152600Y-86577700D01*
X154152600Y-86577700D02*
X154152600Y-62307100D01*
X154152600Y-62307100D02*
X154652100Y-61807600D01*
X146870600Y-107863500D02*
X146848300Y-107841200D01*
X146848300Y-107841200D02*
X146848300Y-100934300D01*
X146848300Y-100934300D02*
X149524100Y-98258500D01*
%TO.N,/RXC+*%
X145729400Y-122320400D02*
X142199500Y-125850300D01*
X142199500Y-125850300D02*
X131425000Y-125850300D01*
X131425000Y-125850300D02*
X131031000Y-125456300D01*
%TO.N,/RX0-*%
X125171600Y-119640000D02*
X125188600Y-119657000D01*
X125188600Y-119657000D02*
X142446200Y-119657000D01*
X142446200Y-119657000D02*
X143604000Y-118499200D01*
X141169200Y-58242500D02*
X140905900Y-58242500D01*
X140905900Y-58242500D02*
X138943600Y-60204800D01*
X138943600Y-60204800D02*
X138943600Y-61076100D01*
X138943600Y-61076100D02*
X130534200Y-69485500D01*
X130534200Y-69485500D02*
X128440000Y-69485500D01*
X128440000Y-69485500D02*
X120306300Y-77619200D01*
%TO.N,/RX0+*%
X149764000Y-56144000D02*
X149155500Y-55535500D01*
X149155500Y-55535500D02*
X141981300Y-55535500D01*
X141981300Y-55535500D02*
X140371600Y-53925800D01*
X140371600Y-53925800D02*
X134826700Y-53925800D01*
X134826700Y-53925800D02*
X134023000Y-54729500D01*
X134023000Y-54729500D02*
X134023000Y-56066100D01*
X134023000Y-56066100D02*
X133745400Y-56343700D01*
X133745400Y-56343700D02*
X133745400Y-60467600D01*
X133745400Y-60467600D02*
X120209400Y-74003600D01*
X120209400Y-74003600D02*
X120117600Y-74003600D01*
X127443000Y-116946900D02*
X127697400Y-116692500D01*
X127697400Y-116692500D02*
X142721700Y-116692500D01*
X142721700Y-116692500D02*
X144520300Y-118491100D01*
X144520300Y-118491100D02*
X144520300Y-118562800D01*
%TO.N,/RX1-*%
X121712700Y-101276800D02*
X121544600Y-101108700D01*
X121544600Y-101108700D02*
X121544600Y-91087500D01*
X121544600Y-91087500D02*
X122215100Y-90417000D01*
X122215100Y-90417000D02*
X131081100Y-90417000D01*
X131081100Y-90417000D02*
X138860400Y-82637700D01*
X138860400Y-82637700D02*
X138860400Y-77661000D01*
X138860400Y-77661000D02*
X145376600Y-71144800D01*
X145376600Y-71144800D02*
X145481800Y-71144800D01*
%TO.N,/RX1+*%
X150040800Y-93283400D02*
X147521800Y-93283400D01*
X147521800Y-93283400D02*
X147036100Y-92797700D01*
X147036100Y-92797700D02*
X146518100Y-92797700D01*
X146518100Y-92797700D02*
X145897300Y-93418500D01*
X145897300Y-93418500D02*
X145450000Y-93418500D01*
X145450000Y-93418500D02*
X144620200Y-94248300D01*
X144620200Y-94248300D02*
X141345100Y-94248300D01*
X141345100Y-94248300D02*
X135018000Y-100575400D01*
X135018000Y-100575400D02*
X135018000Y-102651500D01*
X135018000Y-102651500D02*
X131924100Y-105745400D01*
X131924100Y-105745400D02*
X131018600Y-105745400D01*
X131018600Y-117317900D02*
X140463700Y-117317900D01*
X140463700Y-117317900D02*
X142177400Y-119031600D01*
%TO.N,/RX2-*%
X121322700Y-78790400D02*
X129952200Y-70160900D01*
X129952200Y-70160900D02*
X132387400Y-70160900D01*
X132387400Y-70160900D02*
X141422900Y-61125400D01*
X141422900Y-61125400D02*
X141422900Y-59697100D01*
X141422900Y-59697100D02*
X144399300Y-56720700D01*
X144399300Y-56720700D02*
X144924500Y-56720700D01*
X129203600Y-117317900D02*
X130434700Y-118549000D01*
X130434700Y-118549000D02*
X139967200Y-118549000D01*
%TO.N,/RX2+*%
X139193700Y-124769600D02*
X139332000Y-124769600D01*
X139332000Y-124769600D02*
X145191800Y-118909800D01*
X145191800Y-118909800D02*
X145191800Y-118347100D01*
X145191800Y-118347100D02*
X142063800Y-115219100D01*
X142063800Y-115219100D02*
X138611300Y-115219100D01*
X142618000Y-53513000D02*
X142538200Y-53433200D01*
X142538200Y-53433200D02*
X123105300Y-53433200D01*
X123105300Y-53433200D02*
X114990700Y-61547800D01*
X114990700Y-61547800D02*
X114990700Y-77877500D01*
%TO.N,/SCDT*%
X155586200Y-122844500D02*
X154365300Y-121623600D01*
X154365300Y-121623600D02*
X154365300Y-119225800D01*
X154365300Y-119225800D02*
X149950600Y-114811100D01*
X149950600Y-114811100D02*
X149435900Y-114811100D01*
X149435900Y-114811100D02*
X149239300Y-114614500D01*
X148374000Y-58699400D02*
X151246000Y-58699400D01*
X151246000Y-58699400D02*
X154706200Y-55239200D01*
X154706200Y-55239200D02*
X157073400Y-55239200D01*
X157073400Y-55239200D02*
X157450700Y-55616500D01*
X157450700Y-55616500D02*
X157450700Y-67054300D01*
X157450700Y-67054300D02*
X164289800Y-73893400D01*
X164289800Y-73893400D02*
X165144300Y-73893400D01*
X165144300Y-73893400D02*
X165981000Y-74730100D01*
X165981000Y-74730100D02*
X165981000Y-75596700D01*
X165981000Y-75596700D02*
X166736700Y-76352400D01*
X166736700Y-76352400D02*
X167649300Y-76352400D01*
X167649300Y-76352400D02*
X168385600Y-77088700D01*
X168385600Y-77088700D02*
X168385600Y-118802400D01*
X168385600Y-118802400D02*
X166604600Y-120583400D01*
X166604600Y-120583400D02*
X161201000Y-120583400D01*
X161201000Y-120583400D02*
X161201000Y-126738700D01*
X161201000Y-127914000D02*
X161201000Y-126738700D01*
%TO.N,/PDO#*%
X149693200Y-113077200D02*
X149403100Y-113367300D01*
X149403100Y-113367300D02*
X149403100Y-113893900D01*
X149403100Y-113893900D02*
X149760900Y-114251700D01*
X149760900Y-114251700D02*
X149939300Y-114251700D01*
X149939300Y-114251700D02*
X150048400Y-114360800D01*
X150048400Y-114360800D02*
X150137200Y-114360800D01*
X150137200Y-114360800D02*
X154974700Y-119198300D01*
X154974700Y-119198300D02*
X154974700Y-119835200D01*
X154974700Y-119835200D02*
X156121000Y-120981500D01*
X156121000Y-120981500D02*
X156121000Y-122494900D01*
X156121000Y-122494900D02*
X156211500Y-122585400D01*
X156211500Y-122585400D02*
X156211500Y-123103600D01*
X156211500Y-123103600D02*
X156121000Y-123194100D01*
X156121000Y-123194100D02*
X156121000Y-127914000D01*
X152541900Y-114729000D02*
X151028200Y-113215300D01*
X151028200Y-113215300D02*
X150501800Y-113215300D01*
X150501800Y-113215300D02*
X150287500Y-113001000D01*
X150287500Y-113001000D02*
X149769400Y-113001000D01*
X149769400Y-113001000D02*
X149693200Y-113077200D01*
X143009700Y-98105800D02*
X143234400Y-97881100D01*
X143234400Y-97881100D02*
X144192700Y-97881100D01*
X144192700Y-97881100D02*
X144540300Y-98228700D01*
X144540300Y-98228700D02*
X144540300Y-107924400D01*
X144540300Y-107924400D02*
X149693200Y-113077200D01*
%TO.N,/RSVD*%
X122720000Y-104167300D02*
X123087400Y-104167300D01*
X123087400Y-104167300D02*
X123895300Y-104975200D01*
X123895300Y-104975200D02*
X123895300Y-119248000D01*
X123895300Y-119248000D02*
X133778800Y-129131500D01*
X133778800Y-129131500D02*
X143903800Y-129131500D01*
X143903800Y-129131500D02*
X144596400Y-128438900D01*
X144596400Y-128438900D02*
X144596400Y-126399200D01*
X144596400Y-126399200D02*
X148835400Y-122160200D01*
X148835400Y-122160200D02*
X148835400Y-121882200D01*
X122720000Y-102992000D02*
X122720000Y-104167300D01*
%TO.N,/PCLK*%
X133688100Y-103052800D02*
X133688100Y-100984800D01*
X133688100Y-100984800D02*
X141995700Y-92677200D01*
X141995700Y-92677200D02*
X144917500Y-92677200D01*
X144917500Y-92677200D02*
X145076800Y-92517900D01*
X145076800Y-92517900D02*
X145524000Y-92517900D01*
X145524000Y-92517900D02*
X146144800Y-91897100D01*
X146144800Y-91897100D02*
X147409300Y-91897100D01*
X147409300Y-91897100D02*
X147766300Y-92254100D01*
X147766300Y-92254100D02*
X149548900Y-92254100D01*
X149548900Y-92254100D02*
X149595200Y-92207800D01*
X149595200Y-92207800D02*
X150697400Y-92207800D01*
X150697400Y-92207800D02*
X152362300Y-93872700D01*
X152362300Y-93872700D02*
X153857300Y-93872700D01*
X153857300Y-93872700D02*
X154922100Y-94937500D01*
X154922100Y-94937500D02*
X155257400Y-94937500D01*
X155257400Y-94937500D02*
X155883400Y-95563500D01*
X155883400Y-95563500D02*
X162965300Y-95563500D01*
X162965300Y-95563500D02*
X163993100Y-96591300D01*
X163993100Y-96591300D02*
X165163800Y-96591300D01*
X165163800Y-96591300D02*
X165981100Y-95774000D01*
X165981100Y-95774000D02*
X165981100Y-95402400D01*
X126435300Y-102992000D02*
X127198000Y-103754700D01*
X127198000Y-103754700D02*
X132986200Y-103754700D01*
X132986200Y-103754700D02*
X133688100Y-103052800D01*
X125260000Y-102992000D02*
X126435300Y-102992000D01*
X167170000Y-95402400D02*
X165981100Y-95402400D01*
%TO.N,/HSYNC*%
X163441100Y-97942400D02*
X163250900Y-98132600D01*
X163250900Y-98132600D02*
X160142500Y-98132600D01*
X160142500Y-98132600D02*
X159569800Y-97559900D01*
X159569800Y-97559900D02*
X155192500Y-97559900D01*
X155192500Y-97559900D02*
X153061900Y-95429300D01*
X153061900Y-95429300D02*
X153061900Y-95429200D01*
X153061900Y-95429200D02*
X147824700Y-95429200D01*
X147824700Y-95429200D02*
X146669900Y-94274400D01*
X146669900Y-94274400D02*
X145231000Y-94274400D01*
X145231000Y-94274400D02*
X144709600Y-94795800D01*
X144709600Y-94795800D02*
X141508500Y-94795800D01*
X141508500Y-94795800D02*
X136774500Y-99529800D01*
X136774500Y-99529800D02*
X136774500Y-103763500D01*
X136774500Y-103763500D02*
X137012900Y-103763500D01*
X126435300Y-105532000D02*
X127274000Y-106370700D01*
X127274000Y-106370700D02*
X134167300Y-106370700D01*
X134167300Y-106370700D02*
X136774500Y-103763500D01*
X164630000Y-97942400D02*
X163441100Y-97942400D01*
X125260000Y-105532000D02*
X126435300Y-105532000D01*
%TO.N,/VSYNC*%
X128956400Y-103100200D02*
X138159900Y-93896700D01*
X138159900Y-93896700D02*
X139369000Y-93896700D01*
X139369000Y-93896700D02*
X142326400Y-90939300D01*
X142326400Y-90939300D02*
X145053700Y-90939300D01*
X145053700Y-90939300D02*
X145473400Y-90519600D01*
X145473400Y-90519600D02*
X150283000Y-90519600D01*
X150283000Y-90519600D02*
X152735500Y-92972100D01*
X152735500Y-92972100D02*
X154266800Y-92972100D01*
X154266800Y-92972100D02*
X154530200Y-93235500D01*
X154530200Y-93235500D02*
X157494900Y-93235500D01*
X157494900Y-93235500D02*
X157519800Y-93210600D01*
X157519800Y-93210600D02*
X161249300Y-93210600D01*
X161249300Y-93210600D02*
X163441100Y-95402400D01*
X125260000Y-108072000D02*
X126435300Y-108072000D01*
X126435300Y-108072000D02*
X127090600Y-107416700D01*
X127090600Y-107416700D02*
X137887000Y-107416700D01*
X164630000Y-95402400D02*
X163441100Y-95402400D01*
%TO.N,/DATAEN*%
X138926400Y-106885600D02*
X138926400Y-103410300D01*
X138926400Y-103410300D02*
X137278100Y-101762000D01*
X137278100Y-101762000D02*
X137278100Y-99663200D01*
X137278100Y-99663200D02*
X141497300Y-95444000D01*
X141497300Y-95444000D02*
X144952800Y-95444000D01*
X144952800Y-95444000D02*
X145669600Y-94727200D01*
X145669600Y-94727200D02*
X146485700Y-94727200D01*
X146485700Y-94727200D02*
X147638100Y-95879600D01*
X147638100Y-95879600D02*
X150472800Y-95879600D01*
X150472800Y-95879600D02*
X152603500Y-98010300D01*
X152603500Y-98010300D02*
X157043400Y-98010300D01*
X157043400Y-98010300D02*
X158480300Y-99447200D01*
X126435300Y-110612000D02*
X135576100Y-110612000D01*
X135576100Y-110612000D02*
X138926400Y-107261700D01*
X138926400Y-107261700D02*
X138926400Y-106885600D01*
X125260000Y-110612000D02*
X126435300Y-110612000D01*
%TO.N,/CTL3*%
X140878600Y-106897200D02*
X134623800Y-113152000D01*
X134623800Y-113152000D02*
X125260000Y-113152000D01*
%TO.N,/CTL2*%
X140897100Y-107764100D02*
X132969200Y-115692000D01*
X132969200Y-115692000D02*
X126435300Y-115692000D01*
X125260000Y-115692000D02*
X126435300Y-115692000D01*
%TO.N,/CTL1*%
X125260000Y-118232000D02*
X126435300Y-118232000D01*
X126435300Y-118232000D02*
X126435300Y-117056700D01*
X126435300Y-117056700D02*
X127249900Y-116242100D01*
X127249900Y-116242100D02*
X133711300Y-116242100D01*
X133711300Y-116242100D02*
X141059500Y-108893900D01*
%TO.N,/PC7*%
X122720000Y-99212400D02*
X132078000Y-99212400D01*
X132078000Y-99212400D02*
X138003000Y-93287400D01*
X138003000Y-93287400D02*
X139341400Y-93287400D01*
X139341400Y-93287400D02*
X144405900Y-88222900D01*
X144405900Y-88222900D02*
X144784000Y-88222900D01*
%TO.N,/PC6*%
X123895300Y-96672400D02*
X127471900Y-93095800D01*
X127471900Y-93095800D02*
X137068400Y-93095800D01*
X137068400Y-93095800D02*
X139923200Y-90241000D01*
X139923200Y-90241000D02*
X140376000Y-90241000D01*
X140376000Y-90241000D02*
X142100600Y-88516400D01*
X122720000Y-96672400D02*
X123895300Y-96672400D01*
%TO.N,/PC5*%
X123895300Y-94132400D02*
X125436800Y-92590900D01*
X125436800Y-92590900D02*
X136594100Y-92590900D01*
X136594100Y-92590900D02*
X138037900Y-91147100D01*
X122720000Y-94132400D02*
X123895300Y-94132400D01*
%TO.N,/PC4*%
X137136100Y-91152500D02*
X136289900Y-91998700D01*
X136289900Y-91998700D02*
X124301600Y-91998700D01*
X124301600Y-91998700D02*
X123895300Y-91592400D01*
X122720000Y-91592400D02*
X123895300Y-91592400D01*
%TO.N,/PB15*%
X145378800Y-88851900D02*
X150526000Y-88851900D01*
X150526000Y-88851900D02*
X153070100Y-91396000D01*
X153070100Y-91396000D02*
X155555200Y-91396000D01*
X155555200Y-91396000D02*
X156043800Y-91884600D01*
X156043800Y-91884600D02*
X156935100Y-91884600D01*
X156935100Y-91884600D02*
X157064800Y-91754900D01*
X157064800Y-91754900D02*
X158164800Y-91754900D01*
X158164800Y-91754900D02*
X158524100Y-91395600D01*
X158524100Y-91395600D02*
X158524100Y-89596000D01*
X158524100Y-89596000D02*
X160178800Y-87941300D01*
X160178800Y-87941300D02*
X160693000Y-87941300D01*
X160693000Y-86766000D02*
X160693000Y-87941300D01*
%TO.N,/PB14*%
X144883700Y-89513600D02*
X150550800Y-89513600D01*
X150550800Y-89513600D02*
X153108700Y-92071500D01*
X153108700Y-92071500D02*
X155593800Y-92071500D01*
X155593800Y-92071500D02*
X155857200Y-92334900D01*
X155857200Y-92334900D02*
X157121700Y-92334900D01*
X157121700Y-92334900D02*
X157205700Y-92250900D01*
X157205700Y-92250900D02*
X158312500Y-92250900D01*
X158312500Y-92250900D02*
X159517700Y-91045700D01*
X159517700Y-91045700D02*
X159517700Y-89306000D01*
X160693000Y-89306000D02*
X159517700Y-89306000D01*
%TO.N,/PB13*%
X144794600Y-90314000D02*
X144978900Y-90314000D01*
X144978900Y-90314000D02*
X145229800Y-90063100D01*
X145229800Y-90063100D02*
X150463400Y-90063100D01*
X150463400Y-90063100D02*
X152922100Y-92521800D01*
X152922100Y-92521800D02*
X154453400Y-92521800D01*
X154453400Y-92521800D02*
X154716800Y-92785200D01*
X154716800Y-92785200D02*
X157308300Y-92785200D01*
X157308300Y-92785200D02*
X157392300Y-92701200D01*
X157392300Y-92701200D02*
X158662500Y-92701200D01*
X158662500Y-92701200D02*
X159517700Y-91846000D01*
X160693000Y-91846000D02*
X159517700Y-91846000D01*
%TO.N,/PB12*%
X159517700Y-94386000D02*
X155043800Y-94386000D01*
X155043800Y-94386000D02*
X154080200Y-93422400D01*
X154080200Y-93422400D02*
X152548900Y-93422400D01*
X152548900Y-93422400D02*
X150884000Y-91757500D01*
X150884000Y-91757500D02*
X149408600Y-91757500D01*
X149408600Y-91757500D02*
X149362300Y-91803800D01*
X149362300Y-91803800D02*
X148205100Y-91803800D01*
X148205100Y-91803800D02*
X147848100Y-91446800D01*
X147848100Y-91446800D02*
X145958200Y-91446800D01*
X145958200Y-91446800D02*
X145390000Y-92015000D01*
X145390000Y-92015000D02*
X144670200Y-92015000D01*
X160693000Y-94386000D02*
X159517700Y-94386000D01*
%TO.N,/PB11*%
X159517700Y-96926000D02*
X156327300Y-96926000D01*
X156327300Y-96926000D02*
X154789100Y-95387800D01*
X154789100Y-95387800D02*
X154735500Y-95387800D01*
X154735500Y-95387800D02*
X153670700Y-94323000D01*
X153670700Y-94323000D02*
X151964800Y-94323000D01*
X151964800Y-94323000D02*
X150299900Y-92658100D01*
X150299900Y-92658100D02*
X149781800Y-92658100D01*
X149781800Y-92658100D02*
X149735500Y-92704400D01*
X149735500Y-92704400D02*
X147579700Y-92704400D01*
X147579700Y-92704400D02*
X147222700Y-92347400D01*
X147222700Y-92347400D02*
X146331400Y-92347400D01*
X146331400Y-92347400D02*
X145710600Y-92968200D01*
X145710600Y-92968200D02*
X145263400Y-92968200D01*
X145263400Y-92968200D02*
X144649900Y-93581700D01*
X144649900Y-93581700D02*
X142053200Y-93581700D01*
X160693000Y-96926000D02*
X159517700Y-96926000D01*
%TO.N,/PB10*%
X140264100Y-91160800D02*
X140340600Y-91160800D01*
X140340600Y-91160800D02*
X143908400Y-87593000D01*
X143908400Y-87593000D02*
X150222500Y-87593000D01*
X150222500Y-87593000D02*
X153404500Y-90775000D01*
X153404500Y-90775000D02*
X155571100Y-90775000D01*
X155571100Y-90775000D02*
X156230400Y-91434300D01*
X156230400Y-91434300D02*
X156748500Y-91434300D01*
X156748500Y-91434300D02*
X157100800Y-91082000D01*
X157100800Y-91082000D02*
X157898700Y-91082000D01*
%TO.N,/PB9*%
X137204400Y-86545900D02*
X137404000Y-86346300D01*
X137404000Y-86346300D02*
X150436100Y-86346300D01*
X150436100Y-86346300D02*
X153830100Y-89740300D01*
X153830100Y-89740300D02*
X156590300Y-89740300D01*
X156590300Y-89740300D02*
X157273400Y-90423400D01*
%TO.N,/PB8*%
X138000600Y-86971600D02*
X150238000Y-86971600D01*
X150238000Y-86971600D02*
X153457000Y-90190600D01*
X153457000Y-90190600D02*
X155871000Y-90190600D01*
X155871000Y-90190600D02*
X156489400Y-90809000D01*
%TO.N,/PA1*%
X116370000Y-81351300D02*
X116741600Y-81351300D01*
X116741600Y-81351300D02*
X117558900Y-82168600D01*
X117558900Y-82168600D02*
X117558900Y-85633600D01*
X117558900Y-85633600D02*
X118356700Y-86431400D01*
X118356700Y-86431400D02*
X120916400Y-86431400D01*
X120916400Y-86431400D02*
X122267400Y-87782400D01*
X122267400Y-87782400D02*
X126239200Y-87782400D01*
X126239200Y-87782400D02*
X128169600Y-89712800D01*
X128169600Y-89712800D02*
X130880400Y-89712800D01*
X116370000Y-80162400D02*
X116370000Y-81351300D01*
%TO.N,/Data18*%
X159323100Y-98349400D02*
X159323100Y-99496700D01*
X159323100Y-99496700D02*
X158727200Y-100092600D01*
X158727200Y-100092600D02*
X156551200Y-100092600D01*
X156551200Y-100092600D02*
X156297900Y-99839300D01*
X156297900Y-99839300D02*
X152803300Y-99839300D01*
X152803300Y-99839300D02*
X147473600Y-105169000D01*
X147473600Y-105169000D02*
X147473600Y-106101400D01*
%TO.N,/Data22*%
X163441100Y-77622400D02*
X162768200Y-77622400D01*
X162768200Y-77622400D02*
X154777900Y-85612700D01*
X164630000Y-77622400D02*
X163441100Y-77622400D01*
%TO.N,/Data21*%
X150414500Y-96731300D02*
X150167000Y-96731300D01*
X150167000Y-96731300D02*
X145616100Y-101282200D01*
X145616100Y-101282200D02*
X145616100Y-106068200D01*
X165981100Y-77622400D02*
X165981100Y-77994000D01*
X165981100Y-77994000D02*
X165163800Y-78811300D01*
X165163800Y-78811300D02*
X164280400Y-78811300D01*
X164280400Y-78811300D02*
X155953000Y-87138700D01*
X167170000Y-77622400D02*
X165981100Y-77622400D01*
%TO.N,/Data16*%
X164630000Y-80162400D02*
X164630000Y-81351300D01*
X164630000Y-81351300D02*
X163694700Y-81351300D01*
X163694700Y-81351300D02*
X160874400Y-84171600D01*
%TO.N,/Data20*%
X163441100Y-82702400D02*
X161276000Y-84867500D01*
X161276000Y-84867500D02*
X159864800Y-84867500D01*
X159864800Y-84867500D02*
X156342900Y-88389400D01*
X156342900Y-88389400D02*
X154173200Y-88389400D01*
X154173200Y-88389400D02*
X153602600Y-87818800D01*
X164630000Y-82702400D02*
X163441100Y-82702400D01*
%TO.N,/Data23*%
X148040000Y-106705200D02*
X149402600Y-105342600D01*
X149402600Y-105342600D02*
X149402600Y-103876900D01*
X149402600Y-103876900D02*
X152805000Y-100474500D01*
X152805000Y-100474500D02*
X155717800Y-100474500D01*
%TO.N,/GPIO_INIT_DONE*%
X167170000Y-92862400D02*
X167170000Y-91673500D01*
X167170000Y-91673500D02*
X166798400Y-91673500D01*
X166798400Y-91673500D02*
X165981100Y-90856200D01*
X165981100Y-90856200D02*
X165981100Y-89900200D01*
X165981100Y-89900200D02*
X165052300Y-88971400D01*
X165052300Y-88971400D02*
X164066300Y-88971400D01*
X164066300Y-88971400D02*
X161868400Y-86773500D01*
X161868400Y-86773500D02*
X161868400Y-86249500D01*
X161868400Y-86249500D02*
X161149800Y-85530900D01*
X161149800Y-85530900D02*
X159838300Y-85530900D01*
X159838300Y-85530900D02*
X156529500Y-88839700D01*
X156529500Y-88839700D02*
X153604900Y-88839700D01*
X153604900Y-88839700D02*
X150661100Y-85895900D01*
X150661100Y-85895900D02*
X136912800Y-85895900D01*
X136912800Y-85895900D02*
X133446800Y-89361900D01*
X133446800Y-89361900D02*
X133446800Y-89650900D01*
X133446800Y-89650900D02*
X133446700Y-89650900D01*
%TO.N,/Data14*%
X163441100Y-100482400D02*
X163441100Y-100928200D01*
X163441100Y-100928200D02*
X160998700Y-103370600D01*
X160998700Y-103370600D02*
X153703400Y-103370600D01*
X153703400Y-103370600D02*
X153143700Y-103930300D01*
X153143700Y-103930300D02*
X150241400Y-103930300D01*
X164630000Y-100482400D02*
X163441100Y-100482400D01*
%TO.N,/Data15*%
X167170000Y-100482400D02*
X165981100Y-100482400D01*
X165981100Y-100482400D02*
X165981100Y-100110900D01*
X165981100Y-100110900D02*
X165148400Y-99278200D01*
X165148400Y-99278200D02*
X163978100Y-99278200D01*
X163978100Y-99278200D02*
X162614900Y-100641400D01*
X162614900Y-100641400D02*
X156859900Y-100641400D01*
X156859900Y-100641400D02*
X156023400Y-101477900D01*
X156023400Y-101477900D02*
X152712400Y-101477900D01*
X152712400Y-101477900D02*
X151015700Y-103174600D01*
%TO.N,/Data13*%
X167170000Y-103022400D02*
X165981100Y-103022400D01*
X165981100Y-103022400D02*
X165981100Y-103394000D01*
X165981100Y-103394000D02*
X165163800Y-104211300D01*
X165163800Y-104211300D02*
X164274400Y-104211300D01*
X164274400Y-104211300D02*
X162758600Y-105727100D01*
X162758600Y-105727100D02*
X152657700Y-105727100D01*
%TO.N,/Data8*%
X163441100Y-108102400D02*
X162634100Y-108909400D01*
X162634100Y-108909400D02*
X152594800Y-108909400D01*
X164630000Y-108102400D02*
X163441100Y-108102400D01*
%TO.N,/Data9*%
X165981100Y-108102400D02*
X165981100Y-107730900D01*
X165981100Y-107730900D02*
X165146500Y-106896300D01*
X165146500Y-106896300D02*
X151655900Y-106896300D01*
X151655900Y-106896300D02*
X150006600Y-108545600D01*
X167170000Y-108102400D02*
X165981100Y-108102400D01*
%TO.N,/Data7*%
X165981100Y-110642400D02*
X165981100Y-110270900D01*
X165981100Y-110270900D02*
X165162000Y-109451800D01*
X165162000Y-109451800D02*
X163361600Y-109451800D01*
X163361600Y-109451800D02*
X162103000Y-110710400D01*
X162103000Y-110710400D02*
X150024300Y-110710400D01*
X167170000Y-110642400D02*
X165981100Y-110642400D01*
%TO.N,/Data5*%
X165981100Y-113182400D02*
X165981100Y-112810800D01*
X165981100Y-112810800D02*
X165163800Y-111993500D01*
X165163800Y-111993500D02*
X150458800Y-111993500D01*
X150458800Y-111993500D02*
X150021700Y-111556400D01*
X167170000Y-113182400D02*
X165981100Y-113182400D01*
%TO.N,/Data3*%
X165981100Y-115722400D02*
X165981100Y-115350800D01*
X165981100Y-115350800D02*
X165163800Y-114533500D01*
X165163800Y-114533500D02*
X157005900Y-114533500D01*
X157005900Y-114533500D02*
X155019000Y-112546600D01*
X155019000Y-112546600D02*
X150113900Y-112546600D01*
X150113900Y-112546600D02*
X149942900Y-112375600D01*
X167170000Y-115722400D02*
X165981100Y-115722400D01*
%TO.N,/Data0*%
X163441100Y-118262400D02*
X154675700Y-118262400D01*
X154675700Y-118262400D02*
X150039600Y-113626300D01*
X150039600Y-113626300D02*
X150028400Y-113626300D01*
X164630000Y-118262400D02*
X163441100Y-118262400D01*
%TO.N,/Data1*%
X165981100Y-118262400D02*
X165981100Y-117890800D01*
X165981100Y-117890800D02*
X165061600Y-116971300D01*
X165061600Y-116971300D02*
X155876500Y-116971300D01*
X155876500Y-116971300D02*
X152604000Y-113698800D01*
X167170000Y-118262400D02*
X165981100Y-118262400D01*
%TO.N,/DFO*%
X147249300Y-119087200D02*
X141769900Y-113607800D01*
X141769900Y-113607800D02*
X141769900Y-103872700D01*
X141769900Y-103872700D02*
X137950900Y-100053700D01*
X137950900Y-100053700D02*
X137950900Y-99996500D01*
X143421000Y-126738700D02*
X147249300Y-122910400D01*
X147249300Y-122910400D02*
X147249300Y-119087200D01*
X147249300Y-119087200D02*
X149995500Y-119087200D01*
X137950900Y-99996500D02*
X137950900Y-99716600D01*
X137950900Y-99716600D02*
X141773100Y-95894400D01*
X141773100Y-95894400D02*
X145769100Y-95894400D01*
X145769100Y-95894400D02*
X146268800Y-95394700D01*
X143421000Y-127914000D02*
X143421000Y-126738700D01*
%TO.N,/PD#*%
X138967500Y-100151200D02*
X142430600Y-103614300D01*
X142430600Y-103614300D02*
X142430600Y-111166300D01*
X142430600Y-111166300D02*
X149513900Y-118249600D01*
X149513900Y-118249600D02*
X149592300Y-118249600D01*
X149592300Y-118249600D02*
X150042400Y-118249600D01*
X150042400Y-118249600D02*
X150648900Y-118856100D01*
X150648900Y-118856100D02*
X150648900Y-120983600D01*
X150648900Y-120983600D02*
X145961000Y-125671500D01*
X145961000Y-125671500D02*
X145961000Y-126738700D01*
X135244400Y-98409500D02*
X135493100Y-98409500D01*
X135493100Y-98409500D02*
X142513000Y-91389600D01*
X142513000Y-91389600D02*
X145378500Y-91389600D01*
X145378500Y-91389600D02*
X145771600Y-90996500D01*
X145771600Y-90996500D02*
X148282100Y-90996500D01*
X148282100Y-90996500D02*
X148464100Y-91178500D01*
X145961000Y-127914000D02*
X145961000Y-126738700D01*
%TO.N,/ST*%
X139422100Y-99165400D02*
X139422100Y-99721400D01*
X139422100Y-99721400D02*
X142880900Y-103180200D01*
X142880900Y-103180200D02*
X142880900Y-110783900D01*
X142880900Y-110783900D02*
X149508800Y-117411800D01*
X149508800Y-117411800D02*
X149593900Y-117411800D01*
X139422100Y-99165400D02*
X141607000Y-96980500D01*
X141607000Y-96980500D02*
X145290400Y-96980500D01*
X145290400Y-96980500D02*
X145429000Y-97119100D01*
X149593900Y-117411800D02*
X149841500Y-117411800D01*
X149841500Y-117411800D02*
X151138800Y-118709100D01*
X151138800Y-118709100D02*
X151138800Y-121130600D01*
X151138800Y-121130600D02*
X148501000Y-123768400D01*
X148501000Y-123768400D02*
X148501000Y-126738700D01*
X148501000Y-127914000D02*
X148501000Y-126738700D01*
%TO.N,/PIXS*%
X141443900Y-100404500D02*
X143331200Y-102291800D01*
X143331200Y-102291800D02*
X143331200Y-110597300D01*
X143331200Y-110597300D02*
X149497600Y-116763700D01*
X149497600Y-116763700D02*
X149830300Y-116763700D01*
X149830300Y-116763700D02*
X151589100Y-118522500D01*
X151589100Y-118522500D02*
X151589100Y-122834000D01*
X151589100Y-122834000D02*
X149865700Y-124557400D01*
X149865700Y-124557400D02*
X149865700Y-127914000D01*
X151041000Y-127914000D02*
X149865700Y-127914000D01*
%TO.N,/STAG#*%
X149691500Y-115436400D02*
X149776900Y-115436400D01*
X149776900Y-115436400D02*
X153581000Y-119240500D01*
X153581000Y-119240500D02*
X153581000Y-127914000D01*
X144990800Y-97752200D02*
X144990800Y-107337700D01*
X144990800Y-107337700D02*
X148842300Y-111189200D01*
X144990800Y-97752200D02*
X144669400Y-97430800D01*
X144669400Y-97430800D02*
X142093900Y-97430800D01*
X142093900Y-97430800D02*
X141170800Y-98353900D01*
X147595700Y-96507200D02*
X146350700Y-97752200D01*
X146350700Y-97752200D02*
X144990800Y-97752200D01*
%TO.N,/OCK_INV*%
X150592600Y-124715400D02*
X152405600Y-126528400D01*
X152405600Y-126528400D02*
X152405600Y-128439600D01*
X152405600Y-128439600D02*
X153055300Y-129089300D01*
X153055300Y-129089300D02*
X156677800Y-129089300D01*
X156677800Y-129089300D02*
X157485700Y-128281400D01*
X157485700Y-128281400D02*
X157485700Y-127914000D01*
X143914900Y-98506400D02*
X143914900Y-110544100D01*
X143914900Y-110544100D02*
X149684200Y-116313400D01*
X149684200Y-116313400D02*
X150016900Y-116313400D01*
X150016900Y-116313400D02*
X152078000Y-118374500D01*
X152078000Y-118374500D02*
X152078000Y-123230000D01*
X152078000Y-123230000D02*
X150592600Y-124715400D01*
X158661000Y-127914000D02*
X157485700Y-127914000D01*
%TO.N,USER_LED*%
X142214200Y-84443100D02*
X142214200Y-80485300D01*
X142214200Y-80485300D02*
X139596300Y-77867400D01*
%TO.N,/PA6*%
X136605600Y-93800300D02*
X135564900Y-93800300D01*
X135564900Y-93800300D02*
X133107600Y-96257600D01*
%TO.N,HDMI_5V*%
X155328200Y-56811600D02*
X154691400Y-56811600D01*
X154691400Y-56811600D02*
X151481200Y-60021800D01*
X151481200Y-60021800D02*
X149092200Y-60021800D01*
%TD*%
D21*
%TO.N,GND*%
X121546274Y-88136076D02*
X121404010Y-88348989D01*
X121292068Y-88619242D01*
X121235000Y-88906140D01*
X121235000Y-89198660D01*
X121292068Y-89485558D01*
X121404010Y-89755811D01*
X121563217Y-89994081D01*
X121033598Y-90523701D01*
X121004600Y-90547499D01*
X120980802Y-90576497D01*
X120980801Y-90576498D01*
X120909626Y-90663224D01*
X120839054Y-90795254D01*
X120817507Y-90866289D01*
X120795598Y-90938514D01*
X120788378Y-91011815D01*
X120780924Y-91087500D01*
X120784601Y-91124832D01*
X120784600Y-101071378D01*
X120780924Y-101108700D01*
X120784600Y-101146022D01*
X120784600Y-101146032D01*
X120784863Y-101148701D01*
X120777700Y-101184711D01*
X120777700Y-101368889D01*
X120813632Y-101549529D01*
X120884114Y-101719689D01*
X120986438Y-101872828D01*
X121116672Y-102003062D01*
X121269811Y-102105386D01*
X121439971Y-102175868D01*
X121474710Y-102182778D01*
X121404010Y-102288589D01*
X121292068Y-102558842D01*
X121235000Y-102845740D01*
X121235000Y-103138260D01*
X121292068Y-103425158D01*
X121404010Y-103695411D01*
X121566525Y-103938632D01*
X121773368Y-104145475D01*
X121947760Y-104262000D01*
X121773368Y-104378525D01*
X121566525Y-104585368D01*
X121404010Y-104828589D01*
X121292068Y-105098842D01*
X121235000Y-105385740D01*
X121235000Y-105678260D01*
X121292068Y-105965158D01*
X121404010Y-106235411D01*
X121566525Y-106478632D01*
X121773368Y-106685475D01*
X121947760Y-106802000D01*
X121773368Y-106918525D01*
X121566525Y-107125368D01*
X121404010Y-107368589D01*
X121292068Y-107638842D01*
X121235000Y-107925740D01*
X121235000Y-108218260D01*
X121292068Y-108505158D01*
X121404010Y-108775411D01*
X121566525Y-109018632D01*
X121773368Y-109225475D01*
X121955534Y-109347195D01*
X121838645Y-109416822D01*
X121622412Y-109611731D01*
X121448359Y-109845080D01*
X121323175Y-110107901D01*
X121278524Y-110255110D01*
X121399845Y-110485000D01*
X122593000Y-110485000D01*
X122593000Y-110465000D01*
X122847000Y-110465000D01*
X122847000Y-110485000D01*
X122867000Y-110485000D01*
X122867000Y-110739000D01*
X122847000Y-110739000D01*
X122847000Y-110759000D01*
X122593000Y-110759000D01*
X122593000Y-110739000D01*
X121399845Y-110739000D01*
X121278524Y-110968890D01*
X121323175Y-111116099D01*
X121448359Y-111378920D01*
X121622412Y-111612269D01*
X121838645Y-111807178D01*
X121955534Y-111876805D01*
X121773368Y-111998525D01*
X121566525Y-112205368D01*
X121404010Y-112448589D01*
X121292068Y-112718842D01*
X121235000Y-113005740D01*
X121235000Y-113298260D01*
X121292068Y-113585158D01*
X121404010Y-113855411D01*
X121566525Y-114098632D01*
X121773368Y-114305475D01*
X121947760Y-114422000D01*
X121773368Y-114538525D01*
X121566525Y-114745368D01*
X121404010Y-114988589D01*
X121292068Y-115258842D01*
X121235000Y-115545740D01*
X121235000Y-115838260D01*
X121292068Y-116125158D01*
X121404010Y-116395411D01*
X121566525Y-116638632D01*
X121773368Y-116845475D01*
X121947760Y-116962000D01*
X121773368Y-117078525D01*
X121566525Y-117285368D01*
X121404010Y-117528589D01*
X121292068Y-117798842D01*
X121235000Y-118085740D01*
X121235000Y-118378260D01*
X121292068Y-118665158D01*
X121404010Y-118935411D01*
X121566525Y-119178632D01*
X121773368Y-119385475D01*
X122016589Y-119547990D01*
X122286842Y-119659932D01*
X122573740Y-119717000D01*
X122866260Y-119717000D01*
X123153158Y-119659932D01*
X123235498Y-119625826D01*
X123260326Y-119672276D01*
X123331501Y-119759002D01*
X123355300Y-119788001D01*
X123384298Y-119811799D01*
X133215001Y-129642503D01*
X133238799Y-129671501D01*
X133354524Y-129766474D01*
X133486553Y-129837046D01*
X133629814Y-129880503D01*
X133741467Y-129891500D01*
X133741475Y-129891500D01*
X133778800Y-129895176D01*
X133816125Y-129891500D01*
X141934493Y-129891500D01*
X141936000Y-130168250D01*
X142094750Y-130327000D01*
X143294000Y-130327000D01*
X143294000Y-130307000D01*
X143548000Y-130307000D01*
X143548000Y-130327000D01*
X145834000Y-130327000D01*
X145834000Y-130307000D01*
X146088000Y-130307000D01*
X146088000Y-130327000D01*
X148374000Y-130327000D01*
X148374000Y-130307000D01*
X148628000Y-130307000D01*
X148628000Y-130327000D01*
X150914000Y-130327000D01*
X150914000Y-130307000D01*
X151168000Y-130307000D01*
X151168000Y-130327000D01*
X153454000Y-130327000D01*
X153454000Y-130307000D01*
X153708000Y-130307000D01*
X153708000Y-130327000D01*
X155994000Y-130327000D01*
X155994000Y-130307000D01*
X156248000Y-130307000D01*
X156248000Y-130327000D01*
X158534000Y-130327000D01*
X158534000Y-130307000D01*
X158788000Y-130307000D01*
X158788000Y-130327000D01*
X161074000Y-130327000D01*
X161074000Y-130307000D01*
X161328000Y-130307000D01*
X161328000Y-130327000D01*
X162521814Y-130327000D01*
X162642481Y-130097109D01*
X162545157Y-129822748D01*
X162396178Y-129572645D01*
X162201269Y-129356412D01*
X161971594Y-129185100D01*
X162147632Y-129067475D01*
X162354475Y-128860632D01*
X162516990Y-128617411D01*
X162628932Y-128347158D01*
X162686000Y-128060260D01*
X162686000Y-127767740D01*
X162628932Y-127480842D01*
X162516990Y-127210589D01*
X162354475Y-126967368D01*
X162147632Y-126760525D01*
X161961000Y-126635822D01*
X161961000Y-121343400D01*
X166567278Y-121343400D01*
X166604600Y-121347076D01*
X166641922Y-121343400D01*
X166641933Y-121343400D01*
X166753586Y-121332403D01*
X166896847Y-121288946D01*
X167028876Y-121218374D01*
X167144601Y-121123401D01*
X167168404Y-121094397D01*
X168438831Y-119823971D01*
X168438830Y-125857396D01*
X168366541Y-126775918D01*
X168157309Y-127647431D01*
X167814316Y-128475489D01*
X167346013Y-129239691D01*
X166763926Y-129921226D01*
X166082391Y-130503312D01*
X165318189Y-130971616D01*
X164490133Y-131314609D01*
X163618618Y-131523841D01*
X162700096Y-131596130D01*
X162141553Y-131596130D01*
X162201269Y-131551588D01*
X162396178Y-131335355D01*
X162545157Y-131085252D01*
X162642481Y-130810891D01*
X162521814Y-130581000D01*
X161328000Y-130581000D01*
X161328000Y-130601000D01*
X161074000Y-130601000D01*
X161074000Y-130581000D01*
X158788000Y-130581000D01*
X158788000Y-130601000D01*
X158534000Y-130601000D01*
X158534000Y-130581000D01*
X156248000Y-130581000D01*
X156248000Y-130601000D01*
X155994000Y-130601000D01*
X155994000Y-130581000D01*
X153708000Y-130581000D01*
X153708000Y-130601000D01*
X153454000Y-130601000D01*
X153454000Y-130581000D01*
X151168000Y-130581000D01*
X151168000Y-130601000D01*
X150914000Y-130601000D01*
X150914000Y-130581000D01*
X148628000Y-130581000D01*
X148628000Y-130601000D01*
X148374000Y-130601000D01*
X148374000Y-130581000D01*
X146088000Y-130581000D01*
X146088000Y-130601000D01*
X145834000Y-130601000D01*
X145834000Y-130581000D01*
X143548000Y-130581000D01*
X143548000Y-130601000D01*
X143294000Y-130601000D01*
X143294000Y-130581000D01*
X142094750Y-130581000D01*
X141936000Y-130739750D01*
X141932928Y-131304000D01*
X141945188Y-131428482D01*
X141981498Y-131548180D01*
X142007128Y-131596130D01*
X120840104Y-131596130D01*
X119921582Y-131523841D01*
X119050069Y-131314609D01*
X118222011Y-130971616D01*
X117457809Y-130503313D01*
X116776274Y-129921226D01*
X116194188Y-129239691D01*
X115725884Y-128475489D01*
X115382891Y-127647433D01*
X115173659Y-126775918D01*
X115101370Y-125857396D01*
X115101370Y-119056155D01*
X115263146Y-119272693D01*
X115481512Y-119469217D01*
X115734022Y-119619364D01*
X116010973Y-119717363D01*
X116243000Y-119596864D01*
X116243000Y-118389400D01*
X116497000Y-118389400D01*
X116497000Y-119596864D01*
X116729027Y-119717363D01*
X117005978Y-119619364D01*
X117258488Y-119469217D01*
X117476854Y-119272693D01*
X117640000Y-119054322D01*
X117803146Y-119272693D01*
X118021512Y-119469217D01*
X118274022Y-119619364D01*
X118550973Y-119717363D01*
X118783000Y-119596864D01*
X118783000Y-118389400D01*
X119037000Y-118389400D01*
X119037000Y-119596864D01*
X119269027Y-119717363D01*
X119545978Y-119619364D01*
X119798488Y-119469217D01*
X120016854Y-119272693D01*
X120192684Y-119037344D01*
X120319222Y-118772214D01*
X120364958Y-118621426D01*
X120243817Y-118389400D01*
X119037000Y-118389400D01*
X118783000Y-118389400D01*
X116497000Y-118389400D01*
X116243000Y-118389400D01*
X116223000Y-118389400D01*
X116223000Y-118135400D01*
X116243000Y-118135400D01*
X116243000Y-118115400D01*
X116497000Y-118115400D01*
X116497000Y-118135400D01*
X118783000Y-118135400D01*
X118783000Y-115849400D01*
X119037000Y-115849400D01*
X119037000Y-118135400D01*
X120243817Y-118135400D01*
X120364958Y-117903374D01*
X120319222Y-117752586D01*
X120192684Y-117487456D01*
X120016854Y-117252107D01*
X119798488Y-117055583D01*
X119692230Y-116992400D01*
X119798488Y-116929217D01*
X120016854Y-116732693D01*
X120192684Y-116497344D01*
X120319222Y-116232214D01*
X120364958Y-116081426D01*
X120243817Y-115849400D01*
X119037000Y-115849400D01*
X118783000Y-115849400D01*
X118763000Y-115849400D01*
X118763000Y-115595400D01*
X118783000Y-115595400D01*
X118783000Y-115575400D01*
X119037000Y-115575400D01*
X119037000Y-115595400D01*
X120243817Y-115595400D01*
X120364958Y-115363374D01*
X120319222Y-115212586D01*
X120192684Y-114947456D01*
X120016854Y-114712107D01*
X119798488Y-114515583D01*
X119699897Y-114456959D01*
X119865302Y-114346439D01*
X120074039Y-114137702D01*
X120238042Y-113892253D01*
X120351010Y-113619525D01*
X120408600Y-113329999D01*
X120408600Y-113034801D01*
X120351010Y-112745275D01*
X120238042Y-112472547D01*
X120074039Y-112227098D01*
X119865302Y-112018361D01*
X119706719Y-111912400D01*
X119865302Y-111806439D01*
X120074039Y-111597702D01*
X120238042Y-111352253D01*
X120351010Y-111079525D01*
X120408600Y-110789999D01*
X120408600Y-110494801D01*
X120351010Y-110205275D01*
X120238042Y-109932547D01*
X120074039Y-109687098D01*
X119865302Y-109478361D01*
X119706719Y-109372400D01*
X119865302Y-109266439D01*
X120074039Y-109057702D01*
X120238042Y-108812253D01*
X120351010Y-108539525D01*
X120408600Y-108249999D01*
X120408600Y-107954801D01*
X120351010Y-107665275D01*
X120238042Y-107392547D01*
X120074039Y-107147098D01*
X119865302Y-106938361D01*
X119706719Y-106832400D01*
X119865302Y-106726439D01*
X120074039Y-106517702D01*
X120238042Y-106272253D01*
X120351010Y-105999525D01*
X120408600Y-105709999D01*
X120408600Y-105414801D01*
X120351010Y-105125275D01*
X120238042Y-104852547D01*
X120074039Y-104607098D01*
X119865302Y-104398361D01*
X119706719Y-104292400D01*
X119865302Y-104186439D01*
X120074039Y-103977702D01*
X120238042Y-103732253D01*
X120351010Y-103459525D01*
X120408600Y-103169999D01*
X120408600Y-102874801D01*
X120351010Y-102585275D01*
X120238042Y-102312547D01*
X120074039Y-102067098D01*
X119865302Y-101858361D01*
X119706719Y-101752400D01*
X119865302Y-101646439D01*
X120074039Y-101437702D01*
X120238042Y-101192253D01*
X120351010Y-100919525D01*
X120408600Y-100629999D01*
X120408600Y-100334801D01*
X120351010Y-100045275D01*
X120238042Y-99772547D01*
X120074039Y-99527098D01*
X119865302Y-99318361D01*
X119706719Y-99212400D01*
X119865302Y-99106439D01*
X120074039Y-98897702D01*
X120238042Y-98652253D01*
X120351010Y-98379525D01*
X120408600Y-98089999D01*
X120408600Y-97794801D01*
X120351010Y-97505275D01*
X120238042Y-97232547D01*
X120074039Y-96987098D01*
X119865302Y-96778361D01*
X119706719Y-96672400D01*
X119865302Y-96566439D01*
X120074039Y-96357702D01*
X120238042Y-96112253D01*
X120351010Y-95839525D01*
X120408600Y-95549999D01*
X120408600Y-95254801D01*
X120351010Y-94965275D01*
X120238042Y-94692547D01*
X120074039Y-94447098D01*
X119865302Y-94238361D01*
X119706719Y-94132400D01*
X119865302Y-94026439D01*
X120074039Y-93817702D01*
X120238042Y-93572253D01*
X120351010Y-93299525D01*
X120408600Y-93009999D01*
X120408600Y-92714801D01*
X120351010Y-92425275D01*
X120238042Y-92152547D01*
X120074039Y-91907098D01*
X119865302Y-91698361D01*
X119706719Y-91592400D01*
X119865302Y-91486439D01*
X120074039Y-91277702D01*
X120238042Y-91032253D01*
X120351010Y-90759525D01*
X120408600Y-90469999D01*
X120408600Y-90174801D01*
X120351010Y-89885275D01*
X120238042Y-89612547D01*
X120074039Y-89367098D01*
X119865302Y-89158361D01*
X119706719Y-89052400D01*
X119865302Y-88946439D01*
X120074039Y-88737702D01*
X120238042Y-88492253D01*
X120351010Y-88219525D01*
X120408600Y-87929999D01*
X120408600Y-87634801D01*
X120351010Y-87345275D01*
X120287273Y-87191400D01*
X120601599Y-87191400D01*
X121546274Y-88136076D01*
%TA.AperFunction,Conductor*%
D22*
G36*
X121546274Y-88136076D02*
G01*
X121404010Y-88348989D01*
X121292068Y-88619242D01*
X121235000Y-88906140D01*
X121235000Y-89198660D01*
X121292068Y-89485558D01*
X121404010Y-89755811D01*
X121563217Y-89994081D01*
X121033598Y-90523701D01*
X121004600Y-90547499D01*
X120980802Y-90576497D01*
X120980801Y-90576498D01*
X120909626Y-90663224D01*
X120839054Y-90795254D01*
X120817507Y-90866289D01*
X120795598Y-90938514D01*
X120788378Y-91011815D01*
X120780924Y-91087500D01*
X120784601Y-91124832D01*
X120784600Y-101071378D01*
X120780924Y-101108700D01*
X120784600Y-101146022D01*
X120784600Y-101146032D01*
X120784863Y-101148701D01*
X120777700Y-101184711D01*
X120777700Y-101368889D01*
X120813632Y-101549529D01*
X120884114Y-101719689D01*
X120986438Y-101872828D01*
X121116672Y-102003062D01*
X121269811Y-102105386D01*
X121439971Y-102175868D01*
X121474710Y-102182778D01*
X121404010Y-102288589D01*
X121292068Y-102558842D01*
X121235000Y-102845740D01*
X121235000Y-103138260D01*
X121292068Y-103425158D01*
X121404010Y-103695411D01*
X121566525Y-103938632D01*
X121773368Y-104145475D01*
X121947760Y-104262000D01*
X121773368Y-104378525D01*
X121566525Y-104585368D01*
X121404010Y-104828589D01*
X121292068Y-105098842D01*
X121235000Y-105385740D01*
X121235000Y-105678260D01*
X121292068Y-105965158D01*
X121404010Y-106235411D01*
X121566525Y-106478632D01*
X121773368Y-106685475D01*
X121947760Y-106802000D01*
X121773368Y-106918525D01*
X121566525Y-107125368D01*
X121404010Y-107368589D01*
X121292068Y-107638842D01*
X121235000Y-107925740D01*
X121235000Y-108218260D01*
X121292068Y-108505158D01*
X121404010Y-108775411D01*
X121566525Y-109018632D01*
X121773368Y-109225475D01*
X121955534Y-109347195D01*
X121838645Y-109416822D01*
X121622412Y-109611731D01*
X121448359Y-109845080D01*
X121323175Y-110107901D01*
X121278524Y-110255110D01*
X121399845Y-110485000D01*
X122593000Y-110485000D01*
X122593000Y-110465000D01*
X122847000Y-110465000D01*
X122847000Y-110485000D01*
X122867000Y-110485000D01*
X122867000Y-110739000D01*
X122847000Y-110739000D01*
X122847000Y-110759000D01*
X122593000Y-110759000D01*
X122593000Y-110739000D01*
X121399845Y-110739000D01*
X121278524Y-110968890D01*
X121323175Y-111116099D01*
X121448359Y-111378920D01*
X121622412Y-111612269D01*
X121838645Y-111807178D01*
X121955534Y-111876805D01*
X121773368Y-111998525D01*
X121566525Y-112205368D01*
X121404010Y-112448589D01*
X121292068Y-112718842D01*
X121235000Y-113005740D01*
X121235000Y-113298260D01*
X121292068Y-113585158D01*
X121404010Y-113855411D01*
X121566525Y-114098632D01*
X121773368Y-114305475D01*
X121947760Y-114422000D01*
X121773368Y-114538525D01*
X121566525Y-114745368D01*
X121404010Y-114988589D01*
X121292068Y-115258842D01*
X121235000Y-115545740D01*
X121235000Y-115838260D01*
X121292068Y-116125158D01*
X121404010Y-116395411D01*
X121566525Y-116638632D01*
X121773368Y-116845475D01*
X121947760Y-116962000D01*
X121773368Y-117078525D01*
X121566525Y-117285368D01*
X121404010Y-117528589D01*
X121292068Y-117798842D01*
X121235000Y-118085740D01*
X121235000Y-118378260D01*
X121292068Y-118665158D01*
X121404010Y-118935411D01*
X121566525Y-119178632D01*
X121773368Y-119385475D01*
X122016589Y-119547990D01*
X122286842Y-119659932D01*
X122573740Y-119717000D01*
X122866260Y-119717000D01*
X123153158Y-119659932D01*
X123235498Y-119625826D01*
X123260326Y-119672276D01*
X123331501Y-119759002D01*
X123355300Y-119788001D01*
X123384298Y-119811799D01*
X133215001Y-129642503D01*
X133238799Y-129671501D01*
X133354524Y-129766474D01*
X133486553Y-129837046D01*
X133629814Y-129880503D01*
X133741467Y-129891500D01*
X133741475Y-129891500D01*
X133778800Y-129895176D01*
X133816125Y-129891500D01*
X141934493Y-129891500D01*
X141936000Y-130168250D01*
X142094750Y-130327000D01*
X143294000Y-130327000D01*
X143294000Y-130307000D01*
X143548000Y-130307000D01*
X143548000Y-130327000D01*
X145834000Y-130327000D01*
X145834000Y-130307000D01*
X146088000Y-130307000D01*
X146088000Y-130327000D01*
X148374000Y-130327000D01*
X148374000Y-130307000D01*
X148628000Y-130307000D01*
X148628000Y-130327000D01*
X150914000Y-130327000D01*
X150914000Y-130307000D01*
X151168000Y-130307000D01*
X151168000Y-130327000D01*
X153454000Y-130327000D01*
X153454000Y-130307000D01*
X153708000Y-130307000D01*
X153708000Y-130327000D01*
X155994000Y-130327000D01*
X155994000Y-130307000D01*
X156248000Y-130307000D01*
X156248000Y-130327000D01*
X158534000Y-130327000D01*
X158534000Y-130307000D01*
X158788000Y-130307000D01*
X158788000Y-130327000D01*
X161074000Y-130327000D01*
X161074000Y-130307000D01*
X161328000Y-130307000D01*
X161328000Y-130327000D01*
X162521814Y-130327000D01*
X162642481Y-130097109D01*
X162545157Y-129822748D01*
X162396178Y-129572645D01*
X162201269Y-129356412D01*
X161971594Y-129185100D01*
X162147632Y-129067475D01*
X162354475Y-128860632D01*
X162516990Y-128617411D01*
X162628932Y-128347158D01*
X162686000Y-128060260D01*
X162686000Y-127767740D01*
X162628932Y-127480842D01*
X162516990Y-127210589D01*
X162354475Y-126967368D01*
X162147632Y-126760525D01*
X161961000Y-126635822D01*
X161961000Y-121343400D01*
X166567278Y-121343400D01*
X166604600Y-121347076D01*
X166641922Y-121343400D01*
X166641933Y-121343400D01*
X166753586Y-121332403D01*
X166896847Y-121288946D01*
X167028876Y-121218374D01*
X167144601Y-121123401D01*
X167168404Y-121094397D01*
X168438831Y-119823971D01*
X168438830Y-125857396D01*
X168366541Y-126775918D01*
X168157309Y-127647431D01*
X167814316Y-128475489D01*
X167346013Y-129239691D01*
X166763926Y-129921226D01*
X166082391Y-130503312D01*
X165318189Y-130971616D01*
X164490133Y-131314609D01*
X163618618Y-131523841D01*
X162700096Y-131596130D01*
X162141553Y-131596130D01*
X162201269Y-131551588D01*
X162396178Y-131335355D01*
X162545157Y-131085252D01*
X162642481Y-130810891D01*
X162521814Y-130581000D01*
X161328000Y-130581000D01*
X161328000Y-130601000D01*
X161074000Y-130601000D01*
X161074000Y-130581000D01*
X158788000Y-130581000D01*
X158788000Y-130601000D01*
X158534000Y-130601000D01*
X158534000Y-130581000D01*
X156248000Y-130581000D01*
X156248000Y-130601000D01*
X155994000Y-130601000D01*
X155994000Y-130581000D01*
X153708000Y-130581000D01*
X153708000Y-130601000D01*
X153454000Y-130601000D01*
X153454000Y-130581000D01*
X151168000Y-130581000D01*
X151168000Y-130601000D01*
X150914000Y-130601000D01*
X150914000Y-130581000D01*
X148628000Y-130581000D01*
X148628000Y-130601000D01*
X148374000Y-130601000D01*
X148374000Y-130581000D01*
X146088000Y-130581000D01*
X146088000Y-130601000D01*
X145834000Y-130601000D01*
X145834000Y-130581000D01*
X143548000Y-130581000D01*
X143548000Y-130601000D01*
X143294000Y-130601000D01*
X143294000Y-130581000D01*
X142094750Y-130581000D01*
X141936000Y-130739750D01*
X141932928Y-131304000D01*
X141945188Y-131428482D01*
X141981498Y-131548180D01*
X142007128Y-131596130D01*
X120840104Y-131596130D01*
X119921582Y-131523841D01*
X119050069Y-131314609D01*
X118222011Y-130971616D01*
X117457809Y-130503313D01*
X116776274Y-129921226D01*
X116194188Y-129239691D01*
X115725884Y-128475489D01*
X115382891Y-127647433D01*
X115173659Y-126775918D01*
X115101370Y-125857396D01*
X115101370Y-119056155D01*
X115263146Y-119272693D01*
X115481512Y-119469217D01*
X115734022Y-119619364D01*
X116010973Y-119717363D01*
X116243000Y-119596864D01*
X116243000Y-118389400D01*
X116497000Y-118389400D01*
X116497000Y-119596864D01*
X116729027Y-119717363D01*
X117005978Y-119619364D01*
X117258488Y-119469217D01*
X117476854Y-119272693D01*
X117640000Y-119054322D01*
X117803146Y-119272693D01*
X118021512Y-119469217D01*
X118274022Y-119619364D01*
X118550973Y-119717363D01*
X118783000Y-119596864D01*
X118783000Y-118389400D01*
X119037000Y-118389400D01*
X119037000Y-119596864D01*
X119269027Y-119717363D01*
X119545978Y-119619364D01*
X119798488Y-119469217D01*
X120016854Y-119272693D01*
X120192684Y-119037344D01*
X120319222Y-118772214D01*
X120364958Y-118621426D01*
X120243817Y-118389400D01*
X119037000Y-118389400D01*
X118783000Y-118389400D01*
X116497000Y-118389400D01*
X116243000Y-118389400D01*
X116223000Y-118389400D01*
X116223000Y-118135400D01*
X116243000Y-118135400D01*
X116243000Y-118115400D01*
X116497000Y-118115400D01*
X116497000Y-118135400D01*
X118783000Y-118135400D01*
X118783000Y-115849400D01*
X119037000Y-115849400D01*
X119037000Y-118135400D01*
X120243817Y-118135400D01*
X120364958Y-117903374D01*
X120319222Y-117752586D01*
X120192684Y-117487456D01*
X120016854Y-117252107D01*
X119798488Y-117055583D01*
X119692230Y-116992400D01*
X119798488Y-116929217D01*
X120016854Y-116732693D01*
X120192684Y-116497344D01*
X120319222Y-116232214D01*
X120364958Y-116081426D01*
X120243817Y-115849400D01*
X119037000Y-115849400D01*
X118783000Y-115849400D01*
X118763000Y-115849400D01*
X118763000Y-115595400D01*
X118783000Y-115595400D01*
X118783000Y-115575400D01*
X119037000Y-115575400D01*
X119037000Y-115595400D01*
X120243817Y-115595400D01*
X120364958Y-115363374D01*
X120319222Y-115212586D01*
X120192684Y-114947456D01*
X120016854Y-114712107D01*
X119798488Y-114515583D01*
X119699897Y-114456959D01*
X119865302Y-114346439D01*
X120074039Y-114137702D01*
X120238042Y-113892253D01*
X120351010Y-113619525D01*
X120408600Y-113329999D01*
X120408600Y-113034801D01*
X120351010Y-112745275D01*
X120238042Y-112472547D01*
X120074039Y-112227098D01*
X119865302Y-112018361D01*
X119706719Y-111912400D01*
X119865302Y-111806439D01*
X120074039Y-111597702D01*
X120238042Y-111352253D01*
X120351010Y-111079525D01*
X120408600Y-110789999D01*
X120408600Y-110494801D01*
X120351010Y-110205275D01*
X120238042Y-109932547D01*
X120074039Y-109687098D01*
X119865302Y-109478361D01*
X119706719Y-109372400D01*
X119865302Y-109266439D01*
X120074039Y-109057702D01*
X120238042Y-108812253D01*
X120351010Y-108539525D01*
X120408600Y-108249999D01*
X120408600Y-107954801D01*
X120351010Y-107665275D01*
X120238042Y-107392547D01*
X120074039Y-107147098D01*
X119865302Y-106938361D01*
X119706719Y-106832400D01*
X119865302Y-106726439D01*
X120074039Y-106517702D01*
X120238042Y-106272253D01*
X120351010Y-105999525D01*
X120408600Y-105709999D01*
X120408600Y-105414801D01*
X120351010Y-105125275D01*
X120238042Y-104852547D01*
X120074039Y-104607098D01*
X119865302Y-104398361D01*
X119706719Y-104292400D01*
X119865302Y-104186439D01*
X120074039Y-103977702D01*
X120238042Y-103732253D01*
X120351010Y-103459525D01*
X120408600Y-103169999D01*
X120408600Y-102874801D01*
X120351010Y-102585275D01*
X120238042Y-102312547D01*
X120074039Y-102067098D01*
X119865302Y-101858361D01*
X119706719Y-101752400D01*
X119865302Y-101646439D01*
X120074039Y-101437702D01*
X120238042Y-101192253D01*
X120351010Y-100919525D01*
X120408600Y-100629999D01*
X120408600Y-100334801D01*
X120351010Y-100045275D01*
X120238042Y-99772547D01*
X120074039Y-99527098D01*
X119865302Y-99318361D01*
X119706719Y-99212400D01*
X119865302Y-99106439D01*
X120074039Y-98897702D01*
X120238042Y-98652253D01*
X120351010Y-98379525D01*
X120408600Y-98089999D01*
X120408600Y-97794801D01*
X120351010Y-97505275D01*
X120238042Y-97232547D01*
X120074039Y-96987098D01*
X119865302Y-96778361D01*
X119706719Y-96672400D01*
X119865302Y-96566439D01*
X120074039Y-96357702D01*
X120238042Y-96112253D01*
X120351010Y-95839525D01*
X120408600Y-95549999D01*
X120408600Y-95254801D01*
X120351010Y-94965275D01*
X120238042Y-94692547D01*
X120074039Y-94447098D01*
X119865302Y-94238361D01*
X119706719Y-94132400D01*
X119865302Y-94026439D01*
X120074039Y-93817702D01*
X120238042Y-93572253D01*
X120351010Y-93299525D01*
X120408600Y-93009999D01*
X120408600Y-92714801D01*
X120351010Y-92425275D01*
X120238042Y-92152547D01*
X120074039Y-91907098D01*
X119865302Y-91698361D01*
X119706719Y-91592400D01*
X119865302Y-91486439D01*
X120074039Y-91277702D01*
X120238042Y-91032253D01*
X120351010Y-90759525D01*
X120408600Y-90469999D01*
X120408600Y-90174801D01*
X120351010Y-89885275D01*
X120238042Y-89612547D01*
X120074039Y-89367098D01*
X119865302Y-89158361D01*
X119706719Y-89052400D01*
X119865302Y-88946439D01*
X120074039Y-88737702D01*
X120238042Y-88492253D01*
X120351010Y-88219525D01*
X120408600Y-87929999D01*
X120408600Y-87634801D01*
X120351010Y-87345275D01*
X120287273Y-87191400D01*
X120601599Y-87191400D01*
X121546274Y-88136076D01*
G37*
%TD.AperFunction*%
D21*
X136761511Y-87374486D02*
X136931671Y-87444968D01*
X137112311Y-87480900D01*
X137216388Y-87480900D01*
X137274338Y-87567628D01*
X137404572Y-87697862D01*
X137557711Y-87800186D01*
X137727871Y-87870668D01*
X137908511Y-87906600D01*
X138092689Y-87906600D01*
X138273329Y-87870668D01*
X138443489Y-87800186D01*
X138546135Y-87731600D01*
X141592180Y-87731600D01*
X141504572Y-87790138D01*
X141374338Y-87920372D01*
X141272014Y-88073511D01*
X141201532Y-88243671D01*
X141177447Y-88364751D01*
X140061199Y-89481000D01*
X139960523Y-89481000D01*
X139923200Y-89477324D01*
X139885877Y-89481000D01*
X139885867Y-89481000D01*
X139774214Y-89491997D01*
X139631794Y-89535199D01*
X139630953Y-89535454D01*
X139498923Y-89606026D01*
X139430005Y-89662586D01*
X139383199Y-89700999D01*
X139359401Y-89729997D01*
X138651244Y-90438154D01*
X138633928Y-90420838D01*
X138480789Y-90318514D01*
X138310629Y-90248032D01*
X138129989Y-90212100D01*
X137945811Y-90212100D01*
X137765171Y-90248032D01*
X137595011Y-90318514D01*
X137582959Y-90326567D01*
X137578989Y-90323914D01*
X137408829Y-90253432D01*
X137228189Y-90217500D01*
X137044011Y-90217500D01*
X136863371Y-90253432D01*
X136693211Y-90323914D01*
X136540072Y-90426238D01*
X136409838Y-90556472D01*
X136307514Y-90709611D01*
X136237032Y-90879771D01*
X136212947Y-91000851D01*
X135975099Y-91238700D01*
X124616401Y-91238700D01*
X124554701Y-91177000D01*
X131043778Y-91177000D01*
X131081100Y-91180676D01*
X131118422Y-91177000D01*
X131118433Y-91177000D01*
X131230086Y-91166003D01*
X131373347Y-91122546D01*
X131505376Y-91051974D01*
X131621101Y-90957001D01*
X131644904Y-90927997D01*
X132577402Y-89995500D01*
X132618114Y-90093789D01*
X132720438Y-90246928D01*
X132850672Y-90377162D01*
X133003811Y-90479486D01*
X133173971Y-90549968D01*
X133354611Y-90585900D01*
X133538789Y-90585900D01*
X133719429Y-90549968D01*
X133889589Y-90479486D01*
X134042728Y-90377162D01*
X134172962Y-90246928D01*
X134275286Y-90093789D01*
X134345768Y-89923629D01*
X134381700Y-89742989D01*
X134381700Y-89558811D01*
X134372241Y-89511260D01*
X136610151Y-87273351D01*
X136761511Y-87374486D01*
%TA.AperFunction,Conductor*%
D22*
G36*
X136761511Y-87374486D02*
G01*
X136931671Y-87444968D01*
X137112311Y-87480900D01*
X137216388Y-87480900D01*
X137274338Y-87567628D01*
X137404572Y-87697862D01*
X137557711Y-87800186D01*
X137727871Y-87870668D01*
X137908511Y-87906600D01*
X138092689Y-87906600D01*
X138273329Y-87870668D01*
X138443489Y-87800186D01*
X138546135Y-87731600D01*
X141592180Y-87731600D01*
X141504572Y-87790138D01*
X141374338Y-87920372D01*
X141272014Y-88073511D01*
X141201532Y-88243671D01*
X141177447Y-88364751D01*
X140061199Y-89481000D01*
X139960523Y-89481000D01*
X139923200Y-89477324D01*
X139885877Y-89481000D01*
X139885867Y-89481000D01*
X139774214Y-89491997D01*
X139631794Y-89535199D01*
X139630953Y-89535454D01*
X139498923Y-89606026D01*
X139430005Y-89662586D01*
X139383199Y-89700999D01*
X139359401Y-89729997D01*
X138651244Y-90438154D01*
X138633928Y-90420838D01*
X138480789Y-90318514D01*
X138310629Y-90248032D01*
X138129989Y-90212100D01*
X137945811Y-90212100D01*
X137765171Y-90248032D01*
X137595011Y-90318514D01*
X137582959Y-90326567D01*
X137578989Y-90323914D01*
X137408829Y-90253432D01*
X137228189Y-90217500D01*
X137044011Y-90217500D01*
X136863371Y-90253432D01*
X136693211Y-90323914D01*
X136540072Y-90426238D01*
X136409838Y-90556472D01*
X136307514Y-90709611D01*
X136237032Y-90879771D01*
X136212947Y-91000851D01*
X135975099Y-91238700D01*
X124616401Y-91238700D01*
X124554701Y-91177000D01*
X131043778Y-91177000D01*
X131081100Y-91180676D01*
X131118422Y-91177000D01*
X131118433Y-91177000D01*
X131230086Y-91166003D01*
X131373347Y-91122546D01*
X131505376Y-91051974D01*
X131621101Y-90957001D01*
X131644904Y-90927997D01*
X132577402Y-89995500D01*
X132618114Y-90093789D01*
X132720438Y-90246928D01*
X132850672Y-90377162D01*
X133003811Y-90479486D01*
X133173971Y-90549968D01*
X133354611Y-90585900D01*
X133538789Y-90585900D01*
X133719429Y-90549968D01*
X133889589Y-90479486D01*
X134042728Y-90377162D01*
X134172962Y-90246928D01*
X134275286Y-90093789D01*
X134345768Y-89923629D01*
X134381700Y-89742989D01*
X134381700Y-89558811D01*
X134372241Y-89511260D01*
X136610151Y-87273351D01*
X136761511Y-87374486D01*
G37*
%TD.AperFunction*%
D21*
X137353298Y-77076301D02*
X137324300Y-77100099D01*
X137300502Y-77129097D01*
X137300501Y-77129098D01*
X137229326Y-77215824D01*
X137158754Y-77347854D01*
X137143850Y-77396989D01*
X137115298Y-77491114D01*
X137107021Y-77575154D01*
X137100624Y-77640100D01*
X137104301Y-77677432D01*
X137104300Y-79077264D01*
X137035714Y-79179911D01*
X136965232Y-79350071D01*
X136929300Y-79530711D01*
X136929300Y-79714889D01*
X136965232Y-79895529D01*
X137019574Y-80026724D01*
X134264700Y-82781599D01*
X134264700Y-79445101D01*
X135481750Y-78228052D01*
X135602829Y-78203968D01*
X135772989Y-78133486D01*
X135926128Y-78031162D01*
X136056362Y-77900928D01*
X136158686Y-77747789D01*
X136229168Y-77577629D01*
X136265100Y-77396989D01*
X136265100Y-77212811D01*
X136229168Y-77032171D01*
X136158686Y-76862011D01*
X136056362Y-76708872D01*
X135926128Y-76578638D01*
X135772989Y-76476314D01*
X135602829Y-76405832D01*
X135422189Y-76369900D01*
X135238011Y-76369900D01*
X135057371Y-76405832D01*
X134887211Y-76476314D01*
X134734072Y-76578638D01*
X134603838Y-76708872D01*
X134501514Y-76862011D01*
X134431032Y-77032171D01*
X134406948Y-77153250D01*
X132993698Y-78566501D01*
X132964700Y-78590299D01*
X132940902Y-78619297D01*
X132940901Y-78619298D01*
X132869726Y-78706024D01*
X132799154Y-78838054D01*
X132781661Y-78895723D01*
X132755698Y-78981314D01*
X132744701Y-79092967D01*
X132741024Y-79130300D01*
X132744701Y-79167632D01*
X132744700Y-83137964D01*
X132676114Y-83240611D01*
X132605632Y-83410771D01*
X132569700Y-83591411D01*
X132569700Y-83596900D01*
X131073022Y-83596900D01*
X131035699Y-83593224D01*
X130998376Y-83596900D01*
X130998367Y-83596900D01*
X130886714Y-83607897D01*
X130743453Y-83651354D01*
X130611423Y-83721926D01*
X130527783Y-83790568D01*
X130495699Y-83816899D01*
X130471901Y-83845897D01*
X129835399Y-84482400D01*
X124116103Y-84482400D01*
X124147932Y-84405558D01*
X124205000Y-84118660D01*
X124205000Y-83826140D01*
X124147932Y-83539242D01*
X124035990Y-83268989D01*
X123873475Y-83025768D01*
X123741620Y-82893913D01*
X123814180Y-82871902D01*
X123924494Y-82812937D01*
X124021185Y-82733585D01*
X124100537Y-82636894D01*
X124159502Y-82526580D01*
X124195812Y-82406882D01*
X124208072Y-82282400D01*
X124208072Y-80582400D01*
X124195812Y-80457918D01*
X124159502Y-80338220D01*
X124100537Y-80227906D01*
X124021185Y-80131215D01*
X123924494Y-80051863D01*
X123814180Y-79992898D01*
X123720650Y-79964526D01*
X123724701Y-79961201D01*
X123748504Y-79932197D01*
X130888202Y-72792500D01*
X131058409Y-72792500D01*
X131091932Y-72961029D01*
X131162414Y-73131189D01*
X131264738Y-73284328D01*
X131394972Y-73414562D01*
X131548111Y-73516886D01*
X131718271Y-73587368D01*
X131898911Y-73623300D01*
X132083089Y-73623300D01*
X132263729Y-73587368D01*
X132433889Y-73516886D01*
X132536535Y-73448300D01*
X140069878Y-73448300D01*
X140107200Y-73451976D01*
X140144522Y-73448300D01*
X140144533Y-73448300D01*
X140256186Y-73437303D01*
X140399447Y-73393846D01*
X140531476Y-73323274D01*
X140647201Y-73228301D01*
X140671004Y-73199297D01*
X147613149Y-66257153D01*
X147734229Y-66233068D01*
X147904389Y-66162586D01*
X148007035Y-66094000D01*
X148335598Y-66094000D01*
X137353298Y-77076301D01*
%TA.AperFunction,Conductor*%
D22*
G36*
X137353298Y-77076301D02*
G01*
X137324300Y-77100099D01*
X137300502Y-77129097D01*
X137300501Y-77129098D01*
X137229326Y-77215824D01*
X137158754Y-77347854D01*
X137143850Y-77396989D01*
X137115298Y-77491114D01*
X137107021Y-77575154D01*
X137100624Y-77640100D01*
X137104301Y-77677432D01*
X137104300Y-79077264D01*
X137035714Y-79179911D01*
X136965232Y-79350071D01*
X136929300Y-79530711D01*
X136929300Y-79714889D01*
X136965232Y-79895529D01*
X137019574Y-80026724D01*
X134264700Y-82781599D01*
X134264700Y-79445101D01*
X135481750Y-78228052D01*
X135602829Y-78203968D01*
X135772989Y-78133486D01*
X135926128Y-78031162D01*
X136056362Y-77900928D01*
X136158686Y-77747789D01*
X136229168Y-77577629D01*
X136265100Y-77396989D01*
X136265100Y-77212811D01*
X136229168Y-77032171D01*
X136158686Y-76862011D01*
X136056362Y-76708872D01*
X135926128Y-76578638D01*
X135772989Y-76476314D01*
X135602829Y-76405832D01*
X135422189Y-76369900D01*
X135238011Y-76369900D01*
X135057371Y-76405832D01*
X134887211Y-76476314D01*
X134734072Y-76578638D01*
X134603838Y-76708872D01*
X134501514Y-76862011D01*
X134431032Y-77032171D01*
X134406948Y-77153250D01*
X132993698Y-78566501D01*
X132964700Y-78590299D01*
X132940902Y-78619297D01*
X132940901Y-78619298D01*
X132869726Y-78706024D01*
X132799154Y-78838054D01*
X132781661Y-78895723D01*
X132755698Y-78981314D01*
X132744701Y-79092967D01*
X132741024Y-79130300D01*
X132744701Y-79167632D01*
X132744700Y-83137964D01*
X132676114Y-83240611D01*
X132605632Y-83410771D01*
X132569700Y-83591411D01*
X132569700Y-83596900D01*
X131073022Y-83596900D01*
X131035699Y-83593224D01*
X130998376Y-83596900D01*
X130998367Y-83596900D01*
X130886714Y-83607897D01*
X130743453Y-83651354D01*
X130611423Y-83721926D01*
X130527783Y-83790568D01*
X130495699Y-83816899D01*
X130471901Y-83845897D01*
X129835399Y-84482400D01*
X124116103Y-84482400D01*
X124147932Y-84405558D01*
X124205000Y-84118660D01*
X124205000Y-83826140D01*
X124147932Y-83539242D01*
X124035990Y-83268989D01*
X123873475Y-83025768D01*
X123741620Y-82893913D01*
X123814180Y-82871902D01*
X123924494Y-82812937D01*
X124021185Y-82733585D01*
X124100537Y-82636894D01*
X124159502Y-82526580D01*
X124195812Y-82406882D01*
X124208072Y-82282400D01*
X124208072Y-80582400D01*
X124195812Y-80457918D01*
X124159502Y-80338220D01*
X124100537Y-80227906D01*
X124021185Y-80131215D01*
X123924494Y-80051863D01*
X123814180Y-79992898D01*
X123720650Y-79964526D01*
X123724701Y-79961201D01*
X123748504Y-79932197D01*
X130888202Y-72792500D01*
X131058409Y-72792500D01*
X131091932Y-72961029D01*
X131162414Y-73131189D01*
X131264738Y-73284328D01*
X131394972Y-73414562D01*
X131548111Y-73516886D01*
X131718271Y-73587368D01*
X131898911Y-73623300D01*
X132083089Y-73623300D01*
X132263729Y-73587368D01*
X132433889Y-73516886D01*
X132536535Y-73448300D01*
X140069878Y-73448300D01*
X140107200Y-73451976D01*
X140144522Y-73448300D01*
X140144533Y-73448300D01*
X140256186Y-73437303D01*
X140399447Y-73393846D01*
X140531476Y-73323274D01*
X140647201Y-73228301D01*
X140671004Y-73199297D01*
X147613149Y-66257153D01*
X147734229Y-66233068D01*
X147904389Y-66162586D01*
X148007035Y-66094000D01*
X148335598Y-66094000D01*
X137353298Y-77076301D01*
G37*
%TD.AperFunction*%
D21*
X163618618Y-43405959D02*
X164490133Y-43615191D01*
X165318189Y-43958184D01*
X166082391Y-44426488D01*
X166763926Y-45008574D01*
X167346013Y-45690109D01*
X167814316Y-46454311D01*
X168157309Y-47282369D01*
X168366541Y-48153882D01*
X168438830Y-49072404D01*
X168438830Y-49713650D01*
X168438831Y-49713660D01*
X168438831Y-61583931D01*
X168334039Y-61427098D01*
X168125302Y-61218361D01*
X167879853Y-61054358D01*
X167607125Y-60941390D01*
X167317599Y-60883800D01*
X167022401Y-60883800D01*
X166732875Y-60941390D01*
X166460147Y-61054358D01*
X166214698Y-61218361D01*
X166100636Y-61332423D01*
X166083102Y-61274620D01*
X166024137Y-61164306D01*
X165944785Y-61067615D01*
X165848094Y-60988263D01*
X165737780Y-60929298D01*
X165618082Y-60892988D01*
X165493600Y-60880728D01*
X163766400Y-60880728D01*
X163641918Y-60892988D01*
X163522220Y-60929298D01*
X163411906Y-60988263D01*
X163315215Y-61067615D01*
X163235863Y-61164306D01*
X163176898Y-61274620D01*
X163140588Y-61394318D01*
X163128328Y-61518800D01*
X163128328Y-63246000D01*
X163140588Y-63370482D01*
X163176898Y-63490180D01*
X163235863Y-63600494D01*
X163315215Y-63697185D01*
X163411906Y-63776537D01*
X163522220Y-63835502D01*
X163580023Y-63853036D01*
X163465961Y-63967098D01*
X163301958Y-64212547D01*
X163188990Y-64485275D01*
X163131400Y-64774801D01*
X163131400Y-65069999D01*
X163188990Y-65359525D01*
X163301958Y-65632253D01*
X163465961Y-65877702D01*
X163674698Y-66086439D01*
X163833281Y-66192400D01*
X163674698Y-66298361D01*
X163465961Y-66507098D01*
X163301958Y-66752547D01*
X163188990Y-67025275D01*
X163131400Y-67314801D01*
X163131400Y-67609999D01*
X163188990Y-67899525D01*
X163301958Y-68172253D01*
X163465961Y-68417702D01*
X163674698Y-68626439D01*
X163833281Y-68732400D01*
X163674698Y-68838361D01*
X163465961Y-69047098D01*
X163301958Y-69292547D01*
X163188990Y-69565275D01*
X163131400Y-69854801D01*
X163131400Y-70149999D01*
X163188990Y-70439525D01*
X163301958Y-70712253D01*
X163465961Y-70957702D01*
X163674698Y-71166439D01*
X163833281Y-71272400D01*
X163674698Y-71378361D01*
X163465961Y-71587098D01*
X163302675Y-71831474D01*
X158210700Y-66739499D01*
X158210700Y-55752162D01*
X158385790Y-55805275D01*
X158672000Y-55833464D01*
X158958209Y-55805275D01*
X159233420Y-55721790D01*
X159487056Y-55586219D01*
X159709370Y-55403771D01*
X159891819Y-55181457D01*
X160027390Y-54927821D01*
X160110875Y-54652610D01*
X160132000Y-54438123D01*
X160132000Y-52644677D01*
X160110875Y-52430190D01*
X160027390Y-52154979D01*
X159891819Y-51901343D01*
X159709371Y-51679029D01*
X159487057Y-51496581D01*
X159233421Y-51361010D01*
X158958210Y-51277525D01*
X158672000Y-51249336D01*
X158385791Y-51277525D01*
X158110580Y-51361010D01*
X157856944Y-51496581D01*
X157634630Y-51679029D01*
X157452182Y-51901343D01*
X157316611Y-52154979D01*
X157233126Y-52430190D01*
X157212000Y-52644677D01*
X157212000Y-54438122D01*
X157217077Y-54489674D01*
X157110733Y-54479200D01*
X157110722Y-54479200D01*
X157073400Y-54475524D01*
X157036078Y-54479200D01*
X154743525Y-54479200D01*
X154706200Y-54475524D01*
X154668875Y-54479200D01*
X154668867Y-54479200D01*
X154557214Y-54490197D01*
X154413953Y-54533654D01*
X154281924Y-54604226D01*
X154166199Y-54699199D01*
X154142401Y-54728197D01*
X150931199Y-57939400D01*
X149652178Y-57939400D01*
X149527475Y-57752768D01*
X149320632Y-57545925D01*
X149077411Y-57383410D01*
X148807158Y-57271468D01*
X148520260Y-57214400D01*
X148227740Y-57214400D01*
X147940842Y-57271468D01*
X147670589Y-57383410D01*
X147427368Y-57545925D01*
X147220525Y-57752768D01*
X147058010Y-57995989D01*
X146946068Y-58266242D01*
X146889000Y-58553140D01*
X146889000Y-58845660D01*
X146946068Y-59132558D01*
X147058010Y-59402811D01*
X147220525Y-59646032D01*
X147427368Y-59852875D01*
X147601760Y-59969400D01*
X147427368Y-60085925D01*
X147220525Y-60292768D01*
X147058010Y-60535989D01*
X146946068Y-60806242D01*
X146889000Y-61093140D01*
X146889000Y-61385660D01*
X146946068Y-61672558D01*
X147026054Y-61865662D01*
X146917953Y-61898454D01*
X146785924Y-61969026D01*
X146670199Y-62063999D01*
X146646401Y-62092997D01*
X137630052Y-71109347D01*
X137508971Y-71133432D01*
X137338811Y-71203914D01*
X137236165Y-71272500D01*
X130610725Y-71272500D01*
X130573400Y-71268824D01*
X130536075Y-71272500D01*
X130536067Y-71272500D01*
X130424414Y-71283497D01*
X130281153Y-71326954D01*
X130149124Y-71397526D01*
X130033399Y-71492499D01*
X130009601Y-71521497D01*
X122869899Y-78661200D01*
X122526701Y-78661200D01*
X130267002Y-70920900D01*
X132350078Y-70920900D01*
X132387400Y-70924576D01*
X132424722Y-70920900D01*
X132424733Y-70920900D01*
X132536386Y-70909903D01*
X132679647Y-70866446D01*
X132811676Y-70795874D01*
X132927401Y-70700901D01*
X132951204Y-70671897D01*
X134151282Y-69471820D01*
X134185814Y-69555189D01*
X134288138Y-69708328D01*
X134418372Y-69838562D01*
X134571511Y-69940886D01*
X134741671Y-70011368D01*
X134922311Y-70047300D01*
X135106489Y-70047300D01*
X135287129Y-70011368D01*
X135457289Y-69940886D01*
X135610428Y-69838562D01*
X135740662Y-69708328D01*
X135842986Y-69555189D01*
X135913468Y-69385029D01*
X135937553Y-69263948D01*
X142534802Y-62666700D01*
X142621667Y-62666700D01*
X142659000Y-62670377D01*
X142807986Y-62655703D01*
X142951247Y-62612246D01*
X143083276Y-62541674D01*
X143199001Y-62446701D01*
X143293974Y-62330976D01*
X143353575Y-62219472D01*
X143509000Y-62219472D01*
X143633482Y-62207212D01*
X143753180Y-62170902D01*
X143863494Y-62111937D01*
X143960185Y-62032585D01*
X144039537Y-61935894D01*
X144098502Y-61825580D01*
X144134812Y-61705882D01*
X144147072Y-61581400D01*
X144147072Y-59881400D01*
X144134812Y-59756918D01*
X144098502Y-59637220D01*
X144039537Y-59526906D01*
X143960185Y-59430215D01*
X143863494Y-59350863D01*
X143753180Y-59291898D01*
X143633482Y-59255588D01*
X143509000Y-59243328D01*
X142951473Y-59243328D01*
X144597510Y-57597292D01*
X144651771Y-57619768D01*
X144832411Y-57655700D01*
X145016589Y-57655700D01*
X145197229Y-57619768D01*
X145367389Y-57549286D01*
X145520528Y-57446962D01*
X145650762Y-57316728D01*
X145753086Y-57163589D01*
X145823568Y-56993429D01*
X145859500Y-56812789D01*
X145859500Y-56628611D01*
X145823568Y-56447971D01*
X145760413Y-56295500D01*
X148840699Y-56295500D01*
X148840847Y-56295649D01*
X148864932Y-56416729D01*
X148935414Y-56586889D01*
X149037738Y-56740028D01*
X149167972Y-56870262D01*
X149321111Y-56972586D01*
X149491271Y-57043068D01*
X149671911Y-57079000D01*
X149856089Y-57079000D01*
X150036729Y-57043068D01*
X150206889Y-56972586D01*
X150360028Y-56870262D01*
X150490262Y-56740028D01*
X150592586Y-56586889D01*
X150663068Y-56416729D01*
X150699000Y-56236089D01*
X150699000Y-56051911D01*
X150663068Y-55871271D01*
X150592586Y-55701111D01*
X150490262Y-55547972D01*
X150360028Y-55417738D01*
X150206889Y-55315414D01*
X150036729Y-55244932D01*
X149915649Y-55220847D01*
X149719303Y-55024502D01*
X149695501Y-54995499D01*
X149579776Y-54900526D01*
X149447747Y-54829954D01*
X149304486Y-54786497D01*
X149192833Y-54775500D01*
X149192822Y-54775500D01*
X149155500Y-54771824D01*
X149118178Y-54775500D01*
X145573596Y-54775500D01*
X145610875Y-54652610D01*
X145632000Y-54438123D01*
X145632000Y-52644677D01*
X145610875Y-52430190D01*
X145527390Y-52154979D01*
X145391819Y-51901343D01*
X145287877Y-51774688D01*
X147737000Y-51774688D01*
X147737000Y-52008112D01*
X147782539Y-52237052D01*
X147871866Y-52452708D01*
X148001550Y-52646794D01*
X148166606Y-52811850D01*
X148360692Y-52941534D01*
X148576348Y-53030861D01*
X148805288Y-53076400D01*
X149038712Y-53076400D01*
X149267652Y-53030861D01*
X149483308Y-52941534D01*
X149677394Y-52811850D01*
X149842450Y-52646794D01*
X149972134Y-52452708D01*
X150061461Y-52237052D01*
X150107000Y-52008112D01*
X150107000Y-51774688D01*
X152737000Y-51774688D01*
X152737000Y-52008112D01*
X152782539Y-52237052D01*
X152871866Y-52452708D01*
X153001550Y-52646794D01*
X153166606Y-52811850D01*
X153360692Y-52941534D01*
X153576348Y-53030861D01*
X153805288Y-53076400D01*
X154038712Y-53076400D01*
X154267652Y-53030861D01*
X154483308Y-52941534D01*
X154677394Y-52811850D01*
X154842450Y-52646794D01*
X154972134Y-52452708D01*
X155061461Y-52237052D01*
X155107000Y-52008112D01*
X155107000Y-51774688D01*
X155061461Y-51545748D01*
X154972134Y-51330092D01*
X154842450Y-51136006D01*
X154677394Y-50970950D01*
X154483308Y-50841266D01*
X154267652Y-50751939D01*
X154038712Y-50706400D01*
X153805288Y-50706400D01*
X153576348Y-50751939D01*
X153360692Y-50841266D01*
X153166606Y-50970950D01*
X153001550Y-51136006D01*
X152871866Y-51330092D01*
X152782539Y-51545748D01*
X152737000Y-51774688D01*
X150107000Y-51774688D01*
X150061461Y-51545748D01*
X149972134Y-51330092D01*
X149842450Y-51136006D01*
X149677394Y-50970950D01*
X149483308Y-50841266D01*
X149267652Y-50751939D01*
X149038712Y-50706400D01*
X148805288Y-50706400D01*
X148576348Y-50751939D01*
X148360692Y-50841266D01*
X148166606Y-50970950D01*
X148001550Y-51136006D01*
X147871866Y-51330092D01*
X147782539Y-51545748D01*
X147737000Y-51774688D01*
X145287877Y-51774688D01*
X145209371Y-51679029D01*
X144987057Y-51496581D01*
X144733421Y-51361010D01*
X144458210Y-51277525D01*
X144172000Y-51249336D01*
X143885791Y-51277525D01*
X143610580Y-51361010D01*
X143356944Y-51496581D01*
X143134630Y-51679029D01*
X142952182Y-51901343D01*
X142816611Y-52154979D01*
X142733126Y-52430190D01*
X142718404Y-52579654D01*
X142710089Y-52578000D01*
X142525911Y-52578000D01*
X142345271Y-52613932D01*
X142202184Y-52673200D01*
X123142622Y-52673200D01*
X123105299Y-52669524D01*
X123067976Y-52673200D01*
X123067967Y-52673200D01*
X122956314Y-52684197D01*
X122813053Y-52727654D01*
X122681024Y-52798226D01*
X122681022Y-52798227D01*
X122681023Y-52798227D01*
X122594296Y-52869401D01*
X122594292Y-52869405D01*
X122565299Y-52893199D01*
X122541505Y-52922192D01*
X115101370Y-60362329D01*
X115101370Y-49931400D01*
X126130000Y-49931400D01*
X126130000Y-50456400D01*
X126177066Y-50680265D01*
X126266901Y-50890646D01*
X126396053Y-51079459D01*
X126559559Y-51239447D01*
X126751136Y-51364463D01*
X126984190Y-51448364D01*
X127163000Y-51322563D01*
X127163000Y-49931400D01*
X126130000Y-49931400D01*
X115101370Y-49931400D01*
X115101370Y-49152400D01*
X126130000Y-49152400D01*
X126130000Y-49677400D01*
X127163000Y-49677400D01*
X127163000Y-48286237D01*
X127417000Y-48286237D01*
X127417000Y-49677400D01*
X127437000Y-49677400D01*
X127437000Y-49931400D01*
X127417000Y-49931400D01*
X127417000Y-51322563D01*
X127595810Y-51448364D01*
X127828864Y-51364463D01*
X128020441Y-51239447D01*
X128183947Y-51079459D01*
X128313099Y-50890646D01*
X128402934Y-50680265D01*
X128450000Y-50456400D01*
X128450000Y-50229501D01*
X128625448Y-50264400D01*
X128814552Y-50264400D01*
X129000022Y-50227508D01*
X129174731Y-50155141D01*
X129331964Y-50050081D01*
X129465681Y-49916364D01*
X129570741Y-49759131D01*
X129643108Y-49584422D01*
X129680000Y-49398952D01*
X129680000Y-49209848D01*
X133540000Y-49209848D01*
X133540000Y-49398952D01*
X133576892Y-49584422D01*
X133649259Y-49759131D01*
X133754319Y-49916364D01*
X133888036Y-50050081D01*
X134045269Y-50155141D01*
X134219978Y-50227508D01*
X134405448Y-50264400D01*
X134594552Y-50264400D01*
X134770000Y-50229501D01*
X134770000Y-50456400D01*
X134817066Y-50680265D01*
X134906901Y-50890646D01*
X135036053Y-51079459D01*
X135199559Y-51239447D01*
X135391136Y-51364463D01*
X135624190Y-51448364D01*
X135803000Y-51322563D01*
X135803000Y-49931400D01*
X136057000Y-49931400D01*
X136057000Y-51322563D01*
X136235810Y-51448364D01*
X136468864Y-51364463D01*
X136660441Y-51239447D01*
X136823947Y-51079459D01*
X136953099Y-50890646D01*
X137042934Y-50680265D01*
X137090000Y-50456400D01*
X137090000Y-49931400D01*
X136057000Y-49931400D01*
X135803000Y-49931400D01*
X135783000Y-49931400D01*
X135783000Y-49677400D01*
X135803000Y-49677400D01*
X135803000Y-48286237D01*
X136057000Y-48286237D01*
X136057000Y-49677400D01*
X137090000Y-49677400D01*
X137090000Y-49152400D01*
X137042934Y-48928535D01*
X136953099Y-48718154D01*
X136823947Y-48529341D01*
X136660441Y-48369353D01*
X136468864Y-48244337D01*
X136235810Y-48160436D01*
X136057000Y-48286237D01*
X135803000Y-48286237D01*
X135624190Y-48160436D01*
X135391136Y-48244337D01*
X135199559Y-48369353D01*
X135049015Y-48516658D01*
X134954731Y-48453659D01*
X134780022Y-48381292D01*
X134594552Y-48344400D01*
X134405448Y-48344400D01*
X134219978Y-48381292D01*
X134045269Y-48453659D01*
X133888036Y-48558719D01*
X133754319Y-48692436D01*
X133649259Y-48849669D01*
X133576892Y-49024378D01*
X133540000Y-49209848D01*
X129680000Y-49209848D01*
X129643108Y-49024378D01*
X129570741Y-48849669D01*
X129465681Y-48692436D01*
X129331964Y-48558719D01*
X129174731Y-48453659D01*
X129000022Y-48381292D01*
X128814552Y-48344400D01*
X128625448Y-48344400D01*
X128439978Y-48381292D01*
X128265269Y-48453659D01*
X128170985Y-48516658D01*
X128020441Y-48369353D01*
X127828864Y-48244337D01*
X127595810Y-48160436D01*
X127417000Y-48286237D01*
X127163000Y-48286237D01*
X126984190Y-48160436D01*
X126751136Y-48244337D01*
X126559559Y-48369353D01*
X126396053Y-48529341D01*
X126266901Y-48718154D01*
X126177066Y-48928535D01*
X126130000Y-49152400D01*
X115101370Y-49152400D01*
X115101370Y-49072404D01*
X115173659Y-48153882D01*
X115382891Y-47282367D01*
X115725884Y-46454311D01*
X116156628Y-45751400D01*
X126255000Y-45751400D01*
X126255000Y-46151400D01*
X126299664Y-46350878D01*
X126382386Y-46537810D01*
X126499987Y-46705012D01*
X126647948Y-46846058D01*
X126820582Y-46955528D01*
X127003877Y-47019066D01*
X127163000Y-46891398D01*
X127163000Y-45751400D01*
X127417000Y-45751400D01*
X127417000Y-46891398D01*
X127576123Y-47019066D01*
X127759418Y-46955528D01*
X127932052Y-46846058D01*
X128080013Y-46705012D01*
X128197614Y-46537810D01*
X128280336Y-46350878D01*
X128325000Y-46151400D01*
X128325000Y-45751400D01*
X134895000Y-45751400D01*
X134895000Y-46151400D01*
X134939664Y-46350878D01*
X135022386Y-46537810D01*
X135139987Y-46705012D01*
X135287948Y-46846058D01*
X135460582Y-46955528D01*
X135643877Y-47019066D01*
X135803000Y-46891398D01*
X135803000Y-45751400D01*
X136057000Y-45751400D01*
X136057000Y-46891398D01*
X136216123Y-47019066D01*
X136399418Y-46955528D01*
X136572052Y-46846058D01*
X136576257Y-46842049D01*
X142862000Y-46842049D01*
X142862000Y-48320750D01*
X142880955Y-48513204D01*
X142955862Y-48760140D01*
X143077505Y-48987717D01*
X143241208Y-49187192D01*
X143440682Y-49350895D01*
X143668259Y-49472538D01*
X143915195Y-49547445D01*
X144172000Y-49572738D01*
X144428804Y-49547445D01*
X144675740Y-49472538D01*
X144903317Y-49350895D01*
X145102792Y-49187192D01*
X145266495Y-48987718D01*
X145388138Y-48760141D01*
X145463045Y-48513205D01*
X145482000Y-48320751D01*
X145482000Y-46842049D01*
X157362000Y-46842049D01*
X157362000Y-48320750D01*
X157380955Y-48513204D01*
X157455862Y-48760140D01*
X157577505Y-48987717D01*
X157741208Y-49187192D01*
X157940682Y-49350895D01*
X158168259Y-49472538D01*
X158415195Y-49547445D01*
X158672000Y-49572738D01*
X158928804Y-49547445D01*
X159175740Y-49472538D01*
X159403317Y-49350895D01*
X159602792Y-49187192D01*
X159766495Y-48987718D01*
X159888138Y-48760141D01*
X159963045Y-48513205D01*
X159982000Y-48320751D01*
X159982000Y-46842049D01*
X159963045Y-46649595D01*
X159888138Y-46402659D01*
X159766495Y-46175082D01*
X159602792Y-45975608D01*
X159403318Y-45811905D01*
X159175741Y-45690262D01*
X158928805Y-45615355D01*
X158672000Y-45590062D01*
X158415196Y-45615355D01*
X158168260Y-45690262D01*
X157940683Y-45811905D01*
X157741209Y-45975608D01*
X157577506Y-46175082D01*
X157455862Y-46402659D01*
X157380955Y-46649595D01*
X157362000Y-46842049D01*
X145482000Y-46842049D01*
X145463045Y-46649595D01*
X145388138Y-46402659D01*
X145266495Y-46175082D01*
X145102792Y-45975608D01*
X144903318Y-45811905D01*
X144675741Y-45690262D01*
X144428805Y-45615355D01*
X144172000Y-45590062D01*
X143915196Y-45615355D01*
X143668260Y-45690262D01*
X143440683Y-45811905D01*
X143241209Y-45975608D01*
X143077506Y-46175082D01*
X142955862Y-46402659D01*
X142880955Y-46649595D01*
X142862000Y-46842049D01*
X136576257Y-46842049D01*
X136720013Y-46705012D01*
X136837614Y-46537810D01*
X136920336Y-46350878D01*
X136965000Y-46151400D01*
X136965000Y-45751400D01*
X136057000Y-45751400D01*
X135803000Y-45751400D01*
X134895000Y-45751400D01*
X128325000Y-45751400D01*
X127417000Y-45751400D01*
X127163000Y-45751400D01*
X126255000Y-45751400D01*
X116156628Y-45751400D01*
X116194188Y-45690109D01*
X116700409Y-45097400D01*
X126255000Y-45097400D01*
X126255000Y-45497400D01*
X127163000Y-45497400D01*
X127163000Y-44357402D01*
X127417000Y-44357402D01*
X127417000Y-45497400D01*
X128325000Y-45497400D01*
X128325000Y-45097400D01*
X134895000Y-45097400D01*
X134895000Y-45497400D01*
X135803000Y-45497400D01*
X135803000Y-44357402D01*
X136057000Y-44357402D01*
X136057000Y-45497400D01*
X136965000Y-45497400D01*
X136965000Y-45097400D01*
X136920336Y-44897922D01*
X136837614Y-44710990D01*
X136720013Y-44543788D01*
X136572052Y-44402742D01*
X136399418Y-44293272D01*
X136216123Y-44229734D01*
X136057000Y-44357402D01*
X135803000Y-44357402D01*
X135643877Y-44229734D01*
X135460582Y-44293272D01*
X135287948Y-44402742D01*
X135139987Y-44543788D01*
X135022386Y-44710990D01*
X134939664Y-44897922D01*
X134895000Y-45097400D01*
X128325000Y-45097400D01*
X128280336Y-44897922D01*
X128197614Y-44710990D01*
X128080013Y-44543788D01*
X127932052Y-44402742D01*
X127759418Y-44293272D01*
X127576123Y-44229734D01*
X127417000Y-44357402D01*
X127163000Y-44357402D01*
X127003877Y-44229734D01*
X126820582Y-44293272D01*
X126647948Y-44402742D01*
X126499987Y-44543788D01*
X126382386Y-44710990D01*
X126299664Y-44897922D01*
X126255000Y-45097400D01*
X116700409Y-45097400D01*
X116776274Y-45008574D01*
X117457809Y-44426487D01*
X118222011Y-43958184D01*
X119050069Y-43615191D01*
X119921582Y-43405959D01*
X120840104Y-43333670D01*
X162700096Y-43333670D01*
X163618618Y-43405959D01*
%TA.AperFunction,Conductor*%
D22*
G36*
X163618618Y-43405959D02*
G01*
X164490133Y-43615191D01*
X165318189Y-43958184D01*
X166082391Y-44426488D01*
X166763926Y-45008574D01*
X167346013Y-45690109D01*
X167814316Y-46454311D01*
X168157309Y-47282369D01*
X168366541Y-48153882D01*
X168438830Y-49072404D01*
X168438830Y-49713650D01*
X168438831Y-49713660D01*
X168438831Y-61583931D01*
X168334039Y-61427098D01*
X168125302Y-61218361D01*
X167879853Y-61054358D01*
X167607125Y-60941390D01*
X167317599Y-60883800D01*
X167022401Y-60883800D01*
X166732875Y-60941390D01*
X166460147Y-61054358D01*
X166214698Y-61218361D01*
X166100636Y-61332423D01*
X166083102Y-61274620D01*
X166024137Y-61164306D01*
X165944785Y-61067615D01*
X165848094Y-60988263D01*
X165737780Y-60929298D01*
X165618082Y-60892988D01*
X165493600Y-60880728D01*
X163766400Y-60880728D01*
X163641918Y-60892988D01*
X163522220Y-60929298D01*
X163411906Y-60988263D01*
X163315215Y-61067615D01*
X163235863Y-61164306D01*
X163176898Y-61274620D01*
X163140588Y-61394318D01*
X163128328Y-61518800D01*
X163128328Y-63246000D01*
X163140588Y-63370482D01*
X163176898Y-63490180D01*
X163235863Y-63600494D01*
X163315215Y-63697185D01*
X163411906Y-63776537D01*
X163522220Y-63835502D01*
X163580023Y-63853036D01*
X163465961Y-63967098D01*
X163301958Y-64212547D01*
X163188990Y-64485275D01*
X163131400Y-64774801D01*
X163131400Y-65069999D01*
X163188990Y-65359525D01*
X163301958Y-65632253D01*
X163465961Y-65877702D01*
X163674698Y-66086439D01*
X163833281Y-66192400D01*
X163674698Y-66298361D01*
X163465961Y-66507098D01*
X163301958Y-66752547D01*
X163188990Y-67025275D01*
X163131400Y-67314801D01*
X163131400Y-67609999D01*
X163188990Y-67899525D01*
X163301958Y-68172253D01*
X163465961Y-68417702D01*
X163674698Y-68626439D01*
X163833281Y-68732400D01*
X163674698Y-68838361D01*
X163465961Y-69047098D01*
X163301958Y-69292547D01*
X163188990Y-69565275D01*
X163131400Y-69854801D01*
X163131400Y-70149999D01*
X163188990Y-70439525D01*
X163301958Y-70712253D01*
X163465961Y-70957702D01*
X163674698Y-71166439D01*
X163833281Y-71272400D01*
X163674698Y-71378361D01*
X163465961Y-71587098D01*
X163302675Y-71831474D01*
X158210700Y-66739499D01*
X158210700Y-55752162D01*
X158385790Y-55805275D01*
X158672000Y-55833464D01*
X158958209Y-55805275D01*
X159233420Y-55721790D01*
X159487056Y-55586219D01*
X159709370Y-55403771D01*
X159891819Y-55181457D01*
X160027390Y-54927821D01*
X160110875Y-54652610D01*
X160132000Y-54438123D01*
X160132000Y-52644677D01*
X160110875Y-52430190D01*
X160027390Y-52154979D01*
X159891819Y-51901343D01*
X159709371Y-51679029D01*
X159487057Y-51496581D01*
X159233421Y-51361010D01*
X158958210Y-51277525D01*
X158672000Y-51249336D01*
X158385791Y-51277525D01*
X158110580Y-51361010D01*
X157856944Y-51496581D01*
X157634630Y-51679029D01*
X157452182Y-51901343D01*
X157316611Y-52154979D01*
X157233126Y-52430190D01*
X157212000Y-52644677D01*
X157212000Y-54438122D01*
X157217077Y-54489674D01*
X157110733Y-54479200D01*
X157110722Y-54479200D01*
X157073400Y-54475524D01*
X157036078Y-54479200D01*
X154743525Y-54479200D01*
X154706200Y-54475524D01*
X154668875Y-54479200D01*
X154668867Y-54479200D01*
X154557214Y-54490197D01*
X154413953Y-54533654D01*
X154281924Y-54604226D01*
X154166199Y-54699199D01*
X154142401Y-54728197D01*
X150931199Y-57939400D01*
X149652178Y-57939400D01*
X149527475Y-57752768D01*
X149320632Y-57545925D01*
X149077411Y-57383410D01*
X148807158Y-57271468D01*
X148520260Y-57214400D01*
X148227740Y-57214400D01*
X147940842Y-57271468D01*
X147670589Y-57383410D01*
X147427368Y-57545925D01*
X147220525Y-57752768D01*
X147058010Y-57995989D01*
X146946068Y-58266242D01*
X146889000Y-58553140D01*
X146889000Y-58845660D01*
X146946068Y-59132558D01*
X147058010Y-59402811D01*
X147220525Y-59646032D01*
X147427368Y-59852875D01*
X147601760Y-59969400D01*
X147427368Y-60085925D01*
X147220525Y-60292768D01*
X147058010Y-60535989D01*
X146946068Y-60806242D01*
X146889000Y-61093140D01*
X146889000Y-61385660D01*
X146946068Y-61672558D01*
X147026054Y-61865662D01*
X146917953Y-61898454D01*
X146785924Y-61969026D01*
X146670199Y-62063999D01*
X146646401Y-62092997D01*
X137630052Y-71109347D01*
X137508971Y-71133432D01*
X137338811Y-71203914D01*
X137236165Y-71272500D01*
X130610725Y-71272500D01*
X130573400Y-71268824D01*
X130536075Y-71272500D01*
X130536067Y-71272500D01*
X130424414Y-71283497D01*
X130281153Y-71326954D01*
X130149124Y-71397526D01*
X130033399Y-71492499D01*
X130009601Y-71521497D01*
X122869899Y-78661200D01*
X122526701Y-78661200D01*
X130267002Y-70920900D01*
X132350078Y-70920900D01*
X132387400Y-70924576D01*
X132424722Y-70920900D01*
X132424733Y-70920900D01*
X132536386Y-70909903D01*
X132679647Y-70866446D01*
X132811676Y-70795874D01*
X132927401Y-70700901D01*
X132951204Y-70671897D01*
X134151282Y-69471820D01*
X134185814Y-69555189D01*
X134288138Y-69708328D01*
X134418372Y-69838562D01*
X134571511Y-69940886D01*
X134741671Y-70011368D01*
X134922311Y-70047300D01*
X135106489Y-70047300D01*
X135287129Y-70011368D01*
X135457289Y-69940886D01*
X135610428Y-69838562D01*
X135740662Y-69708328D01*
X135842986Y-69555189D01*
X135913468Y-69385029D01*
X135937553Y-69263948D01*
X142534802Y-62666700D01*
X142621667Y-62666700D01*
X142659000Y-62670377D01*
X142807986Y-62655703D01*
X142951247Y-62612246D01*
X143083276Y-62541674D01*
X143199001Y-62446701D01*
X143293974Y-62330976D01*
X143353575Y-62219472D01*
X143509000Y-62219472D01*
X143633482Y-62207212D01*
X143753180Y-62170902D01*
X143863494Y-62111937D01*
X143960185Y-62032585D01*
X144039537Y-61935894D01*
X144098502Y-61825580D01*
X144134812Y-61705882D01*
X144147072Y-61581400D01*
X144147072Y-59881400D01*
X144134812Y-59756918D01*
X144098502Y-59637220D01*
X144039537Y-59526906D01*
X143960185Y-59430215D01*
X143863494Y-59350863D01*
X143753180Y-59291898D01*
X143633482Y-59255588D01*
X143509000Y-59243328D01*
X142951473Y-59243328D01*
X144597510Y-57597292D01*
X144651771Y-57619768D01*
X144832411Y-57655700D01*
X145016589Y-57655700D01*
X145197229Y-57619768D01*
X145367389Y-57549286D01*
X145520528Y-57446962D01*
X145650762Y-57316728D01*
X145753086Y-57163589D01*
X145823568Y-56993429D01*
X145859500Y-56812789D01*
X145859500Y-56628611D01*
X145823568Y-56447971D01*
X145760413Y-56295500D01*
X148840699Y-56295500D01*
X148840847Y-56295649D01*
X148864932Y-56416729D01*
X148935414Y-56586889D01*
X149037738Y-56740028D01*
X149167972Y-56870262D01*
X149321111Y-56972586D01*
X149491271Y-57043068D01*
X149671911Y-57079000D01*
X149856089Y-57079000D01*
X150036729Y-57043068D01*
X150206889Y-56972586D01*
X150360028Y-56870262D01*
X150490262Y-56740028D01*
X150592586Y-56586889D01*
X150663068Y-56416729D01*
X150699000Y-56236089D01*
X150699000Y-56051911D01*
X150663068Y-55871271D01*
X150592586Y-55701111D01*
X150490262Y-55547972D01*
X150360028Y-55417738D01*
X150206889Y-55315414D01*
X150036729Y-55244932D01*
X149915649Y-55220847D01*
X149719303Y-55024502D01*
X149695501Y-54995499D01*
X149579776Y-54900526D01*
X149447747Y-54829954D01*
X149304486Y-54786497D01*
X149192833Y-54775500D01*
X149192822Y-54775500D01*
X149155500Y-54771824D01*
X149118178Y-54775500D01*
X145573596Y-54775500D01*
X145610875Y-54652610D01*
X145632000Y-54438123D01*
X145632000Y-52644677D01*
X145610875Y-52430190D01*
X145527390Y-52154979D01*
X145391819Y-51901343D01*
X145287877Y-51774688D01*
X147737000Y-51774688D01*
X147737000Y-52008112D01*
X147782539Y-52237052D01*
X147871866Y-52452708D01*
X148001550Y-52646794D01*
X148166606Y-52811850D01*
X148360692Y-52941534D01*
X148576348Y-53030861D01*
X148805288Y-53076400D01*
X149038712Y-53076400D01*
X149267652Y-53030861D01*
X149483308Y-52941534D01*
X149677394Y-52811850D01*
X149842450Y-52646794D01*
X149972134Y-52452708D01*
X150061461Y-52237052D01*
X150107000Y-52008112D01*
X150107000Y-51774688D01*
X152737000Y-51774688D01*
X152737000Y-52008112D01*
X152782539Y-52237052D01*
X152871866Y-52452708D01*
X153001550Y-52646794D01*
X153166606Y-52811850D01*
X153360692Y-52941534D01*
X153576348Y-53030861D01*
X153805288Y-53076400D01*
X154038712Y-53076400D01*
X154267652Y-53030861D01*
X154483308Y-52941534D01*
X154677394Y-52811850D01*
X154842450Y-52646794D01*
X154972134Y-52452708D01*
X155061461Y-52237052D01*
X155107000Y-52008112D01*
X155107000Y-51774688D01*
X155061461Y-51545748D01*
X154972134Y-51330092D01*
X154842450Y-51136006D01*
X154677394Y-50970950D01*
X154483308Y-50841266D01*
X154267652Y-50751939D01*
X154038712Y-50706400D01*
X153805288Y-50706400D01*
X153576348Y-50751939D01*
X153360692Y-50841266D01*
X153166606Y-50970950D01*
X153001550Y-51136006D01*
X152871866Y-51330092D01*
X152782539Y-51545748D01*
X152737000Y-51774688D01*
X150107000Y-51774688D01*
X150061461Y-51545748D01*
X149972134Y-51330092D01*
X149842450Y-51136006D01*
X149677394Y-50970950D01*
X149483308Y-50841266D01*
X149267652Y-50751939D01*
X149038712Y-50706400D01*
X148805288Y-50706400D01*
X148576348Y-50751939D01*
X148360692Y-50841266D01*
X148166606Y-50970950D01*
X148001550Y-51136006D01*
X147871866Y-51330092D01*
X147782539Y-51545748D01*
X147737000Y-51774688D01*
X145287877Y-51774688D01*
X145209371Y-51679029D01*
X144987057Y-51496581D01*
X144733421Y-51361010D01*
X144458210Y-51277525D01*
X144172000Y-51249336D01*
X143885791Y-51277525D01*
X143610580Y-51361010D01*
X143356944Y-51496581D01*
X143134630Y-51679029D01*
X142952182Y-51901343D01*
X142816611Y-52154979D01*
X142733126Y-52430190D01*
X142718404Y-52579654D01*
X142710089Y-52578000D01*
X142525911Y-52578000D01*
X142345271Y-52613932D01*
X142202184Y-52673200D01*
X123142622Y-52673200D01*
X123105299Y-52669524D01*
X123067976Y-52673200D01*
X123067967Y-52673200D01*
X122956314Y-52684197D01*
X122813053Y-52727654D01*
X122681024Y-52798226D01*
X122681022Y-52798227D01*
X122681023Y-52798227D01*
X122594296Y-52869401D01*
X122594292Y-52869405D01*
X122565299Y-52893199D01*
X122541505Y-52922192D01*
X115101370Y-60362329D01*
X115101370Y-49931400D01*
X126130000Y-49931400D01*
X126130000Y-50456400D01*
X126177066Y-50680265D01*
X126266901Y-50890646D01*
X126396053Y-51079459D01*
X126559559Y-51239447D01*
X126751136Y-51364463D01*
X126984190Y-51448364D01*
X127163000Y-51322563D01*
X127163000Y-49931400D01*
X126130000Y-49931400D01*
X115101370Y-49931400D01*
X115101370Y-49152400D01*
X126130000Y-49152400D01*
X126130000Y-49677400D01*
X127163000Y-49677400D01*
X127163000Y-48286237D01*
X127417000Y-48286237D01*
X127417000Y-49677400D01*
X127437000Y-49677400D01*
X127437000Y-49931400D01*
X127417000Y-49931400D01*
X127417000Y-51322563D01*
X127595810Y-51448364D01*
X127828864Y-51364463D01*
X128020441Y-51239447D01*
X128183947Y-51079459D01*
X128313099Y-50890646D01*
X128402934Y-50680265D01*
X128450000Y-50456400D01*
X128450000Y-50229501D01*
X128625448Y-50264400D01*
X128814552Y-50264400D01*
X129000022Y-50227508D01*
X129174731Y-50155141D01*
X129331964Y-50050081D01*
X129465681Y-49916364D01*
X129570741Y-49759131D01*
X129643108Y-49584422D01*
X129680000Y-49398952D01*
X129680000Y-49209848D01*
X133540000Y-49209848D01*
X133540000Y-49398952D01*
X133576892Y-49584422D01*
X133649259Y-49759131D01*
X133754319Y-49916364D01*
X133888036Y-50050081D01*
X134045269Y-50155141D01*
X134219978Y-50227508D01*
X134405448Y-50264400D01*
X134594552Y-50264400D01*
X134770000Y-50229501D01*
X134770000Y-50456400D01*
X134817066Y-50680265D01*
X134906901Y-50890646D01*
X135036053Y-51079459D01*
X135199559Y-51239447D01*
X135391136Y-51364463D01*
X135624190Y-51448364D01*
X135803000Y-51322563D01*
X135803000Y-49931400D01*
X136057000Y-49931400D01*
X136057000Y-51322563D01*
X136235810Y-51448364D01*
X136468864Y-51364463D01*
X136660441Y-51239447D01*
X136823947Y-51079459D01*
X136953099Y-50890646D01*
X137042934Y-50680265D01*
X137090000Y-50456400D01*
X137090000Y-49931400D01*
X136057000Y-49931400D01*
X135803000Y-49931400D01*
X135783000Y-49931400D01*
X135783000Y-49677400D01*
X135803000Y-49677400D01*
X135803000Y-48286237D01*
X136057000Y-48286237D01*
X136057000Y-49677400D01*
X137090000Y-49677400D01*
X137090000Y-49152400D01*
X137042934Y-48928535D01*
X136953099Y-48718154D01*
X136823947Y-48529341D01*
X136660441Y-48369353D01*
X136468864Y-48244337D01*
X136235810Y-48160436D01*
X136057000Y-48286237D01*
X135803000Y-48286237D01*
X135624190Y-48160436D01*
X135391136Y-48244337D01*
X135199559Y-48369353D01*
X135049015Y-48516658D01*
X134954731Y-48453659D01*
X134780022Y-48381292D01*
X134594552Y-48344400D01*
X134405448Y-48344400D01*
X134219978Y-48381292D01*
X134045269Y-48453659D01*
X133888036Y-48558719D01*
X133754319Y-48692436D01*
X133649259Y-48849669D01*
X133576892Y-49024378D01*
X133540000Y-49209848D01*
X129680000Y-49209848D01*
X129643108Y-49024378D01*
X129570741Y-48849669D01*
X129465681Y-48692436D01*
X129331964Y-48558719D01*
X129174731Y-48453659D01*
X129000022Y-48381292D01*
X128814552Y-48344400D01*
X128625448Y-48344400D01*
X128439978Y-48381292D01*
X128265269Y-48453659D01*
X128170985Y-48516658D01*
X128020441Y-48369353D01*
X127828864Y-48244337D01*
X127595810Y-48160436D01*
X127417000Y-48286237D01*
X127163000Y-48286237D01*
X126984190Y-48160436D01*
X126751136Y-48244337D01*
X126559559Y-48369353D01*
X126396053Y-48529341D01*
X126266901Y-48718154D01*
X126177066Y-48928535D01*
X126130000Y-49152400D01*
X115101370Y-49152400D01*
X115101370Y-49072404D01*
X115173659Y-48153882D01*
X115382891Y-47282367D01*
X115725884Y-46454311D01*
X116156628Y-45751400D01*
X126255000Y-45751400D01*
X126255000Y-46151400D01*
X126299664Y-46350878D01*
X126382386Y-46537810D01*
X126499987Y-46705012D01*
X126647948Y-46846058D01*
X126820582Y-46955528D01*
X127003877Y-47019066D01*
X127163000Y-46891398D01*
X127163000Y-45751400D01*
X127417000Y-45751400D01*
X127417000Y-46891398D01*
X127576123Y-47019066D01*
X127759418Y-46955528D01*
X127932052Y-46846058D01*
X128080013Y-46705012D01*
X128197614Y-46537810D01*
X128280336Y-46350878D01*
X128325000Y-46151400D01*
X128325000Y-45751400D01*
X134895000Y-45751400D01*
X134895000Y-46151400D01*
X134939664Y-46350878D01*
X135022386Y-46537810D01*
X135139987Y-46705012D01*
X135287948Y-46846058D01*
X135460582Y-46955528D01*
X135643877Y-47019066D01*
X135803000Y-46891398D01*
X135803000Y-45751400D01*
X136057000Y-45751400D01*
X136057000Y-46891398D01*
X136216123Y-47019066D01*
X136399418Y-46955528D01*
X136572052Y-46846058D01*
X136576257Y-46842049D01*
X142862000Y-46842049D01*
X142862000Y-48320750D01*
X142880955Y-48513204D01*
X142955862Y-48760140D01*
X143077505Y-48987717D01*
X143241208Y-49187192D01*
X143440682Y-49350895D01*
X143668259Y-49472538D01*
X143915195Y-49547445D01*
X144172000Y-49572738D01*
X144428804Y-49547445D01*
X144675740Y-49472538D01*
X144903317Y-49350895D01*
X145102792Y-49187192D01*
X145266495Y-48987718D01*
X145388138Y-48760141D01*
X145463045Y-48513205D01*
X145482000Y-48320751D01*
X145482000Y-46842049D01*
X157362000Y-46842049D01*
X157362000Y-48320750D01*
X157380955Y-48513204D01*
X157455862Y-48760140D01*
X157577505Y-48987717D01*
X157741208Y-49187192D01*
X157940682Y-49350895D01*
X158168259Y-49472538D01*
X158415195Y-49547445D01*
X158672000Y-49572738D01*
X158928804Y-49547445D01*
X159175740Y-49472538D01*
X159403317Y-49350895D01*
X159602792Y-49187192D01*
X159766495Y-48987718D01*
X159888138Y-48760141D01*
X159963045Y-48513205D01*
X159982000Y-48320751D01*
X159982000Y-46842049D01*
X159963045Y-46649595D01*
X159888138Y-46402659D01*
X159766495Y-46175082D01*
X159602792Y-45975608D01*
X159403318Y-45811905D01*
X159175741Y-45690262D01*
X158928805Y-45615355D01*
X158672000Y-45590062D01*
X158415196Y-45615355D01*
X158168260Y-45690262D01*
X157940683Y-45811905D01*
X157741209Y-45975608D01*
X157577506Y-46175082D01*
X157455862Y-46402659D01*
X157380955Y-46649595D01*
X157362000Y-46842049D01*
X145482000Y-46842049D01*
X145463045Y-46649595D01*
X145388138Y-46402659D01*
X145266495Y-46175082D01*
X145102792Y-45975608D01*
X144903318Y-45811905D01*
X144675741Y-45690262D01*
X144428805Y-45615355D01*
X144172000Y-45590062D01*
X143915196Y-45615355D01*
X143668260Y-45690262D01*
X143440683Y-45811905D01*
X143241209Y-45975608D01*
X143077506Y-46175082D01*
X142955862Y-46402659D01*
X142880955Y-46649595D01*
X142862000Y-46842049D01*
X136576257Y-46842049D01*
X136720013Y-46705012D01*
X136837614Y-46537810D01*
X136920336Y-46350878D01*
X136965000Y-46151400D01*
X136965000Y-45751400D01*
X136057000Y-45751400D01*
X135803000Y-45751400D01*
X134895000Y-45751400D01*
X128325000Y-45751400D01*
X127417000Y-45751400D01*
X127163000Y-45751400D01*
X126255000Y-45751400D01*
X116156628Y-45751400D01*
X116194188Y-45690109D01*
X116700409Y-45097400D01*
X126255000Y-45097400D01*
X126255000Y-45497400D01*
X127163000Y-45497400D01*
X127163000Y-44357402D01*
X127417000Y-44357402D01*
X127417000Y-45497400D01*
X128325000Y-45497400D01*
X128325000Y-45097400D01*
X134895000Y-45097400D01*
X134895000Y-45497400D01*
X135803000Y-45497400D01*
X135803000Y-44357402D01*
X136057000Y-44357402D01*
X136057000Y-45497400D01*
X136965000Y-45497400D01*
X136965000Y-45097400D01*
X136920336Y-44897922D01*
X136837614Y-44710990D01*
X136720013Y-44543788D01*
X136572052Y-44402742D01*
X136399418Y-44293272D01*
X136216123Y-44229734D01*
X136057000Y-44357402D01*
X135803000Y-44357402D01*
X135643877Y-44229734D01*
X135460582Y-44293272D01*
X135287948Y-44402742D01*
X135139987Y-44543788D01*
X135022386Y-44710990D01*
X134939664Y-44897922D01*
X134895000Y-45097400D01*
X128325000Y-45097400D01*
X128280336Y-44897922D01*
X128197614Y-44710990D01*
X128080013Y-44543788D01*
X127932052Y-44402742D01*
X127759418Y-44293272D01*
X127576123Y-44229734D01*
X127417000Y-44357402D01*
X127163000Y-44357402D01*
X127003877Y-44229734D01*
X126820582Y-44293272D01*
X126647948Y-44402742D01*
X126499987Y-44543788D01*
X126382386Y-44710990D01*
X126299664Y-44897922D01*
X126255000Y-45097400D01*
X116700409Y-45097400D01*
X116776274Y-45008574D01*
X117457809Y-44426487D01*
X118222011Y-43958184D01*
X119050069Y-43615191D01*
X119921582Y-43405959D01*
X120840104Y-43333670D01*
X162700096Y-43333670D01*
X163618618Y-43405959D01*
G37*
%TD.AperFunction*%
D21*
X141417500Y-56046502D02*
X141441299Y-56075501D01*
X141492940Y-56117882D01*
X141557024Y-56170474D01*
X141689053Y-56241046D01*
X141832314Y-56284503D01*
X141981300Y-56299177D01*
X142018633Y-56295500D01*
X143749698Y-56295500D01*
X142069456Y-57975743D01*
X142068268Y-57969771D01*
X141997786Y-57799611D01*
X141895462Y-57646472D01*
X141765228Y-57516238D01*
X141612089Y-57413914D01*
X141441929Y-57343432D01*
X141261289Y-57307500D01*
X141077111Y-57307500D01*
X140896471Y-57343432D01*
X140726311Y-57413914D01*
X140573172Y-57516238D01*
X140482183Y-57607227D01*
X140481624Y-57607526D01*
X140365899Y-57702499D01*
X140342101Y-57731497D01*
X138507673Y-59565925D01*
X138282411Y-59415410D01*
X138012158Y-59303468D01*
X137725260Y-59246400D01*
X137432740Y-59246400D01*
X137145842Y-59303468D01*
X136875589Y-59415410D01*
X136632368Y-59577925D01*
X136425525Y-59784768D01*
X136303805Y-59966934D01*
X136234178Y-59850045D01*
X136039269Y-59633812D01*
X135805920Y-59459759D01*
X135543099Y-59334575D01*
X135395890Y-59289924D01*
X135166000Y-59411245D01*
X135166000Y-60604400D01*
X135186000Y-60604400D01*
X135186000Y-60858400D01*
X135166000Y-60858400D01*
X135166000Y-62051555D01*
X135395890Y-62172876D01*
X135543099Y-62128225D01*
X135805920Y-62003041D01*
X136039269Y-61828988D01*
X136234178Y-61612755D01*
X136303805Y-61495866D01*
X136425525Y-61678032D01*
X136632368Y-61884875D01*
X136875589Y-62047390D01*
X136891088Y-62053810D01*
X130219399Y-68725500D01*
X128477323Y-68725500D01*
X128440000Y-68721824D01*
X128402677Y-68725500D01*
X128402667Y-68725500D01*
X128291014Y-68736497D01*
X128147753Y-68779954D01*
X128015724Y-68850526D01*
X127899999Y-68945499D01*
X127876201Y-68974497D01*
X120154652Y-76696047D01*
X120100570Y-76706805D01*
X120074039Y-76667098D01*
X119865302Y-76458361D01*
X119706719Y-76352400D01*
X119865302Y-76246439D01*
X120074039Y-76037702D01*
X120238042Y-75792253D01*
X120351010Y-75519525D01*
X120408600Y-75229999D01*
X120408600Y-74934801D01*
X120401304Y-74898122D01*
X120560489Y-74832186D01*
X120713628Y-74729862D01*
X120843862Y-74599628D01*
X120946186Y-74446489D01*
X121016668Y-74276329D01*
X121017958Y-74269843D01*
X133780818Y-61506984D01*
X133843822Y-61612755D01*
X134038731Y-61828988D01*
X134272080Y-62003041D01*
X134534901Y-62128225D01*
X134682110Y-62172876D01*
X134912000Y-62051555D01*
X134912000Y-60858400D01*
X134892000Y-60858400D01*
X134892000Y-60604400D01*
X134912000Y-60604400D01*
X134912000Y-59411245D01*
X134682110Y-59289924D01*
X134534901Y-59334575D01*
X134505400Y-59348627D01*
X134505400Y-56658501D01*
X134533997Y-56629904D01*
X134563001Y-56606101D01*
X134657974Y-56490376D01*
X134663305Y-56480403D01*
X134788901Y-56540225D01*
X134936110Y-56584876D01*
X135166000Y-56463555D01*
X135166000Y-55270400D01*
X135420000Y-55270400D01*
X135420000Y-56463555D01*
X135649890Y-56584876D01*
X135797099Y-56540225D01*
X136059920Y-56415041D01*
X136293269Y-56240988D01*
X136488178Y-56024755D01*
X136637157Y-55774652D01*
X136734481Y-55500291D01*
X136613814Y-55270400D01*
X135420000Y-55270400D01*
X135166000Y-55270400D01*
X135146000Y-55270400D01*
X135146000Y-55016400D01*
X135166000Y-55016400D01*
X135166000Y-54996400D01*
X135420000Y-54996400D01*
X135420000Y-55016400D01*
X136613814Y-55016400D01*
X136734481Y-54786509D01*
X136698757Y-54685800D01*
X140056799Y-54685800D01*
X141417500Y-56046502D01*
%TA.AperFunction,Conductor*%
D22*
G36*
X141417500Y-56046502D02*
G01*
X141441299Y-56075501D01*
X141492940Y-56117882D01*
X141557024Y-56170474D01*
X141689053Y-56241046D01*
X141832314Y-56284503D01*
X141981300Y-56299177D01*
X142018633Y-56295500D01*
X143749698Y-56295500D01*
X142069456Y-57975743D01*
X142068268Y-57969771D01*
X141997786Y-57799611D01*
X141895462Y-57646472D01*
X141765228Y-57516238D01*
X141612089Y-57413914D01*
X141441929Y-57343432D01*
X141261289Y-57307500D01*
X141077111Y-57307500D01*
X140896471Y-57343432D01*
X140726311Y-57413914D01*
X140573172Y-57516238D01*
X140482183Y-57607227D01*
X140481624Y-57607526D01*
X140365899Y-57702499D01*
X140342101Y-57731497D01*
X138507673Y-59565925D01*
X138282411Y-59415410D01*
X138012158Y-59303468D01*
X137725260Y-59246400D01*
X137432740Y-59246400D01*
X137145842Y-59303468D01*
X136875589Y-59415410D01*
X136632368Y-59577925D01*
X136425525Y-59784768D01*
X136303805Y-59966934D01*
X136234178Y-59850045D01*
X136039269Y-59633812D01*
X135805920Y-59459759D01*
X135543099Y-59334575D01*
X135395890Y-59289924D01*
X135166000Y-59411245D01*
X135166000Y-60604400D01*
X135186000Y-60604400D01*
X135186000Y-60858400D01*
X135166000Y-60858400D01*
X135166000Y-62051555D01*
X135395890Y-62172876D01*
X135543099Y-62128225D01*
X135805920Y-62003041D01*
X136039269Y-61828988D01*
X136234178Y-61612755D01*
X136303805Y-61495866D01*
X136425525Y-61678032D01*
X136632368Y-61884875D01*
X136875589Y-62047390D01*
X136891088Y-62053810D01*
X130219399Y-68725500D01*
X128477323Y-68725500D01*
X128440000Y-68721824D01*
X128402677Y-68725500D01*
X128402667Y-68725500D01*
X128291014Y-68736497D01*
X128147753Y-68779954D01*
X128015724Y-68850526D01*
X127899999Y-68945499D01*
X127876201Y-68974497D01*
X120154652Y-76696047D01*
X120100570Y-76706805D01*
X120074039Y-76667098D01*
X119865302Y-76458361D01*
X119706719Y-76352400D01*
X119865302Y-76246439D01*
X120074039Y-76037702D01*
X120238042Y-75792253D01*
X120351010Y-75519525D01*
X120408600Y-75229999D01*
X120408600Y-74934801D01*
X120401304Y-74898122D01*
X120560489Y-74832186D01*
X120713628Y-74729862D01*
X120843862Y-74599628D01*
X120946186Y-74446489D01*
X121016668Y-74276329D01*
X121017958Y-74269843D01*
X133780818Y-61506984D01*
X133843822Y-61612755D01*
X134038731Y-61828988D01*
X134272080Y-62003041D01*
X134534901Y-62128225D01*
X134682110Y-62172876D01*
X134912000Y-62051555D01*
X134912000Y-60858400D01*
X134892000Y-60858400D01*
X134892000Y-60604400D01*
X134912000Y-60604400D01*
X134912000Y-59411245D01*
X134682110Y-59289924D01*
X134534901Y-59334575D01*
X134505400Y-59348627D01*
X134505400Y-56658501D01*
X134533997Y-56629904D01*
X134563001Y-56606101D01*
X134657974Y-56490376D01*
X134663305Y-56480403D01*
X134788901Y-56540225D01*
X134936110Y-56584876D01*
X135166000Y-56463555D01*
X135166000Y-55270400D01*
X135420000Y-55270400D01*
X135420000Y-56463555D01*
X135649890Y-56584876D01*
X135797099Y-56540225D01*
X136059920Y-56415041D01*
X136293269Y-56240988D01*
X136488178Y-56024755D01*
X136637157Y-55774652D01*
X136734481Y-55500291D01*
X136613814Y-55270400D01*
X135420000Y-55270400D01*
X135166000Y-55270400D01*
X135146000Y-55270400D01*
X135146000Y-55016400D01*
X135166000Y-55016400D01*
X135166000Y-54996400D01*
X135420000Y-54996400D01*
X135420000Y-55016400D01*
X136613814Y-55016400D01*
X136734481Y-54786509D01*
X136698757Y-54685800D01*
X140056799Y-54685800D01*
X141417500Y-56046502D01*
G37*
%TD.AperFunction*%
D21*
X120813432Y-56818429D02*
X120883914Y-56988589D01*
X120952500Y-57091236D01*
X120952501Y-59412368D01*
X120948824Y-59449700D01*
X120952501Y-59487033D01*
X120963498Y-59598686D01*
X120973695Y-59632300D01*
X121006954Y-59741946D01*
X121077526Y-59873976D01*
X121141187Y-59951546D01*
X121172500Y-59989701D01*
X121201498Y-60013499D01*
X126974092Y-65786094D01*
X127015014Y-65884889D01*
X127110462Y-66027737D01*
X120398767Y-72739432D01*
X120408600Y-72689999D01*
X120408600Y-72394801D01*
X120351010Y-72105275D01*
X120238042Y-71832547D01*
X120074039Y-71587098D01*
X119865302Y-71378361D01*
X119706719Y-71272400D01*
X119865302Y-71166439D01*
X120074039Y-70957702D01*
X120238042Y-70712253D01*
X120351010Y-70439525D01*
X120408600Y-70149999D01*
X120408600Y-69854801D01*
X120351010Y-69565275D01*
X120238042Y-69292547D01*
X120074039Y-69047098D01*
X119865302Y-68838361D01*
X119706719Y-68732400D01*
X119865302Y-68626439D01*
X120074039Y-68417702D01*
X120238042Y-68172253D01*
X120351010Y-67899525D01*
X120408600Y-67609999D01*
X120408600Y-67314801D01*
X120351010Y-67025275D01*
X120238042Y-66752547D01*
X120074039Y-66507098D01*
X119865302Y-66298361D01*
X119706719Y-66192400D01*
X119865302Y-66086439D01*
X120074039Y-65877702D01*
X120238042Y-65632253D01*
X120351010Y-65359525D01*
X120408600Y-65069999D01*
X120408600Y-64774801D01*
X120351010Y-64485275D01*
X120238042Y-64212547D01*
X120074039Y-63967098D01*
X119865302Y-63758361D01*
X119699897Y-63647841D01*
X119798488Y-63589217D01*
X120016854Y-63392693D01*
X120192684Y-63157344D01*
X120319222Y-62892214D01*
X120364958Y-62741426D01*
X120243817Y-62509400D01*
X119037000Y-62509400D01*
X119037000Y-62529400D01*
X118783000Y-62529400D01*
X118783000Y-62509400D01*
X116497000Y-62509400D01*
X116497000Y-62529400D01*
X116243000Y-62529400D01*
X116243000Y-62509400D01*
X116223000Y-62509400D01*
X116223000Y-62255400D01*
X116243000Y-62255400D01*
X116243000Y-62235400D01*
X116497000Y-62235400D01*
X116497000Y-62255400D01*
X118783000Y-62255400D01*
X118783000Y-61047936D01*
X119037000Y-61047936D01*
X119037000Y-62255400D01*
X120243817Y-62255400D01*
X120364958Y-62023374D01*
X120319222Y-61872586D01*
X120192684Y-61607456D01*
X120016854Y-61372107D01*
X119798488Y-61175583D01*
X119545978Y-61025436D01*
X119269027Y-60927437D01*
X119037000Y-61047936D01*
X118783000Y-61047936D01*
X118550973Y-60927437D01*
X118274022Y-61025436D01*
X118021512Y-61175583D01*
X117842053Y-61337092D01*
X117823102Y-61274620D01*
X117764137Y-61164306D01*
X117684785Y-61067615D01*
X117588094Y-60988263D01*
X117477780Y-60929298D01*
X117358082Y-60892988D01*
X117233600Y-60880728D01*
X116729895Y-60883406D01*
X120810353Y-56802949D01*
X120813432Y-56818429D01*
%TA.AperFunction,Conductor*%
D22*
G36*
X120813432Y-56818429D02*
G01*
X120883914Y-56988589D01*
X120952500Y-57091236D01*
X120952501Y-59412368D01*
X120948824Y-59449700D01*
X120952501Y-59487033D01*
X120963498Y-59598686D01*
X120973695Y-59632300D01*
X121006954Y-59741946D01*
X121077526Y-59873976D01*
X121141187Y-59951546D01*
X121172500Y-59989701D01*
X121201498Y-60013499D01*
X126974092Y-65786094D01*
X127015014Y-65884889D01*
X127110462Y-66027737D01*
X120398767Y-72739432D01*
X120408600Y-72689999D01*
X120408600Y-72394801D01*
X120351010Y-72105275D01*
X120238042Y-71832547D01*
X120074039Y-71587098D01*
X119865302Y-71378361D01*
X119706719Y-71272400D01*
X119865302Y-71166439D01*
X120074039Y-70957702D01*
X120238042Y-70712253D01*
X120351010Y-70439525D01*
X120408600Y-70149999D01*
X120408600Y-69854801D01*
X120351010Y-69565275D01*
X120238042Y-69292547D01*
X120074039Y-69047098D01*
X119865302Y-68838361D01*
X119706719Y-68732400D01*
X119865302Y-68626439D01*
X120074039Y-68417702D01*
X120238042Y-68172253D01*
X120351010Y-67899525D01*
X120408600Y-67609999D01*
X120408600Y-67314801D01*
X120351010Y-67025275D01*
X120238042Y-66752547D01*
X120074039Y-66507098D01*
X119865302Y-66298361D01*
X119706719Y-66192400D01*
X119865302Y-66086439D01*
X120074039Y-65877702D01*
X120238042Y-65632253D01*
X120351010Y-65359525D01*
X120408600Y-65069999D01*
X120408600Y-64774801D01*
X120351010Y-64485275D01*
X120238042Y-64212547D01*
X120074039Y-63967098D01*
X119865302Y-63758361D01*
X119699897Y-63647841D01*
X119798488Y-63589217D01*
X120016854Y-63392693D01*
X120192684Y-63157344D01*
X120319222Y-62892214D01*
X120364958Y-62741426D01*
X120243817Y-62509400D01*
X119037000Y-62509400D01*
X119037000Y-62529400D01*
X118783000Y-62529400D01*
X118783000Y-62509400D01*
X116497000Y-62509400D01*
X116497000Y-62529400D01*
X116243000Y-62529400D01*
X116243000Y-62509400D01*
X116223000Y-62509400D01*
X116223000Y-62255400D01*
X116243000Y-62255400D01*
X116243000Y-62235400D01*
X116497000Y-62235400D01*
X116497000Y-62255400D01*
X118783000Y-62255400D01*
X118783000Y-61047936D01*
X119037000Y-61047936D01*
X119037000Y-62255400D01*
X120243817Y-62255400D01*
X120364958Y-62023374D01*
X120319222Y-61872586D01*
X120192684Y-61607456D01*
X120016854Y-61372107D01*
X119798488Y-61175583D01*
X119545978Y-61025436D01*
X119269027Y-60927437D01*
X119037000Y-61047936D01*
X118783000Y-61047936D01*
X118550973Y-60927437D01*
X118274022Y-61025436D01*
X118021512Y-61175583D01*
X117842053Y-61337092D01*
X117823102Y-61274620D01*
X117764137Y-61164306D01*
X117684785Y-61067615D01*
X117588094Y-60988263D01*
X117477780Y-60929298D01*
X117358082Y-60892988D01*
X117233600Y-60880728D01*
X116729895Y-60883406D01*
X120810353Y-56802949D01*
X120813432Y-56818429D01*
G37*
%TD.AperFunction*%
%TD*%
D23*
X118465100Y-128232400D03*
X165075100Y-128232400D03*
X165075100Y-46697400D03*
X118465100Y-46697400D03*
X127750300Y-64516400D03*
X125387100Y-80289400D03*
X124752100Y-80289400D03*
X139595700Y-87702700D03*
X122720000Y-68666200D03*
X147547000Y-56237000D03*
X161111600Y-55209400D03*
X149664700Y-56996200D03*
X138711900Y-89509300D03*
X131383300Y-91343800D03*
X134537100Y-90211700D03*
X135648800Y-88951900D03*
X126784100Y-80289400D03*
X127546100Y-80289400D03*
X128308100Y-80289400D03*
X129070100Y-80289400D03*
X129832100Y-80289400D03*
X130594100Y-80289400D03*
X126022100Y-80289400D03*
X130594100Y-81051400D03*
X130594100Y-81813400D03*
X130594100Y-82575400D03*
X130594100Y-83337400D03*
X131991000Y-72688300D03*
X147461500Y-65334000D03*
X155275400Y-59609300D03*
X146611100Y-121929000D03*
X154530000Y-96013100D03*
X146764800Y-93437200D03*
X143548000Y-121985500D03*
X136447700Y-124085600D03*
X130870200Y-85713300D03*
X128134700Y-88591600D03*
X121712500Y-56545700D03*
X127843600Y-65442000D03*
X135330100Y-77304900D03*
X133504700Y-83683500D03*
X135014400Y-69112300D03*
X154715900Y-56113800D03*
X137864300Y-79622800D03*
X156825400Y-55875600D03*
X154131700Y-58551100D03*
X137781700Y-72032500D03*
X146870600Y-107863500D03*
X149524100Y-98258500D03*
X155338900Y-87764000D03*
X154652100Y-61807600D03*
X145729400Y-122320400D03*
X131031000Y-125456300D03*
X143604000Y-118499200D03*
X125171600Y-119640000D03*
X120306300Y-77619200D03*
X141169200Y-58242500D03*
X149764000Y-56144000D03*
X120117600Y-74003600D03*
X127443000Y-116946900D03*
X144520300Y-118562800D03*
X121712700Y-101276800D03*
X145481800Y-71144800D03*
X150040800Y-93283400D03*
X131018600Y-105745400D03*
X131018600Y-117317900D03*
X142177400Y-119031600D03*
X139967200Y-118549000D03*
X129203600Y-117317900D03*
X121322700Y-78790400D03*
X144924500Y-56720700D03*
X138611300Y-115219100D03*
X139193700Y-124769600D03*
X114990700Y-77877500D03*
X142618000Y-53513000D03*
X149239300Y-114614500D03*
X155586200Y-122844500D03*
X143009700Y-98105800D03*
X152541900Y-114729000D03*
X148835400Y-121882200D03*
X133688100Y-103052800D03*
X137012900Y-103763500D03*
X137887000Y-107416700D03*
X128956400Y-103100200D03*
X158480300Y-99447200D03*
X138926400Y-106885600D03*
X140878600Y-106897200D03*
X140897100Y-107764100D03*
X141059500Y-108893900D03*
X144784000Y-88222900D03*
X142100600Y-88516400D03*
X138037900Y-91147100D03*
X137136100Y-91152500D03*
X145378800Y-88851900D03*
X144883700Y-89513600D03*
X144794600Y-90314000D03*
X144670200Y-92015000D03*
X142053200Y-93581700D03*
X140264100Y-91160800D03*
X157898700Y-91082000D03*
X137204400Y-86545900D03*
X157273400Y-90423400D03*
X138000600Y-86971600D03*
X156489400Y-90809000D03*
X130880400Y-89712800D03*
X147473600Y-106101400D03*
X159323100Y-98349400D03*
X154777900Y-85612700D03*
X145616100Y-106068200D03*
X150414500Y-96731300D03*
X155953000Y-87138700D03*
X160874400Y-84171600D03*
X153602600Y-87818800D03*
X148040000Y-106705200D03*
X155717800Y-100474500D03*
X133446700Y-89650900D03*
X150241400Y-103930300D03*
X151015700Y-103174600D03*
X152657700Y-105727100D03*
X152594800Y-108909400D03*
X150006600Y-108545600D03*
X150024300Y-110710400D03*
X150021700Y-111556400D03*
X149942900Y-112375600D03*
X150028400Y-113626300D03*
X152604000Y-113698800D03*
X149995500Y-119087200D03*
X146268800Y-95394700D03*
X137950900Y-99996500D03*
X138967500Y-100151200D03*
X135244400Y-98409500D03*
X148464100Y-91178500D03*
X149592300Y-118249600D03*
X149593900Y-117411800D03*
X145429000Y-97119100D03*
X139422100Y-99165400D03*
X141443900Y-100404500D03*
X149691500Y-115436400D03*
X148842300Y-111189200D03*
X141170800Y-98353900D03*
X147595700Y-96507200D03*
X150592600Y-124715400D03*
X143914900Y-98506400D03*
X139596300Y-77867400D03*
X142214200Y-84443100D03*
X133107600Y-96257600D03*
X136605600Y-93800300D03*
X149092200Y-60021800D03*
X155328200Y-56811600D03*
X167170000Y-118262400D03*
X164630000Y-118262400D03*
X167170000Y-115722400D03*
X164630000Y-115722400D03*
X167170000Y-113182400D03*
X164630000Y-113182400D03*
X167170000Y-110642400D03*
X164630000Y-110642400D03*
X167170000Y-108102400D03*
X164630000Y-108102400D03*
X167170000Y-105562400D03*
X164630000Y-105562400D03*
X167170000Y-103022400D03*
X164630000Y-103022400D03*
X167170000Y-100482400D03*
X164630000Y-100482400D03*
X167170000Y-97942400D03*
X164630000Y-97942400D03*
X167170000Y-95402400D03*
X164630000Y-95402400D03*
X167170000Y-92862400D03*
X164630000Y-92862400D03*
X167170000Y-90322400D03*
X164630000Y-90322400D03*
X167170000Y-87782400D03*
X164630000Y-87782400D03*
X167170000Y-85242400D03*
X164630000Y-85242400D03*
X167170000Y-82702400D03*
X164630000Y-82702400D03*
X167170000Y-80162400D03*
X164630000Y-80162400D03*
X167170000Y-77622400D03*
X164630000Y-77622400D03*
X167170000Y-75082400D03*
X164630000Y-75082400D03*
X167170000Y-72542400D03*
X164630000Y-72542400D03*
X167170000Y-70002400D03*
X164630000Y-70002400D03*
X167170000Y-67462400D03*
X164630000Y-67462400D03*
X167170000Y-64922400D03*
X164630000Y-64922400D03*
X167170000Y-62382400D03*
X164630000Y-62382400D03*
X161201000Y-127914000D03*
X161201000Y-130454000D03*
X158661000Y-127914000D03*
X158661000Y-130454000D03*
X156121000Y-127914000D03*
X156121000Y-130454000D03*
X153581000Y-127914000D03*
X153581000Y-130454000D03*
X151041000Y-127914000D03*
X151041000Y-130454000D03*
X148501000Y-127914000D03*
X148501000Y-130454000D03*
X145961000Y-127914000D03*
X145961000Y-130454000D03*
X143421000Y-127914000D03*
X143421000Y-130454000D03*
X122720000Y-99212400D03*
X122720000Y-96672400D03*
X122720000Y-94132400D03*
X122720000Y-91592400D03*
X122720000Y-89052400D03*
X122720000Y-86512400D03*
X122720000Y-83972400D03*
X122720000Y-81432400D03*
X135293000Y-55143400D03*
X132753000Y-55143400D03*
X130213000Y-55143400D03*
X127673000Y-55143400D03*
X160693000Y-86766000D03*
X160693000Y-89306000D03*
X160693000Y-91846000D03*
X160693000Y-94386000D03*
X160693000Y-96926000D03*
X160693000Y-99466000D03*
X160693000Y-102006000D03*
X160693000Y-104546000D03*
X148374000Y-58699400D03*
X148374000Y-61239400D03*
X148374000Y-63779400D03*
X122720000Y-102992000D03*
X125260000Y-102992000D03*
X122720000Y-105532000D03*
X125260000Y-105532000D03*
X122720000Y-108072000D03*
X125260000Y-108072000D03*
X122720000Y-110612000D03*
X125260000Y-110612000D03*
X122720000Y-113152000D03*
X125260000Y-113152000D03*
X122720000Y-115692000D03*
X125260000Y-115692000D03*
X122720000Y-118232000D03*
X125260000Y-118232000D03*
X135039000Y-60731400D03*
X137579000Y-60731400D03*
X140119000Y-60731400D03*
X142659000Y-60731400D03*
D24*
X127290000Y-49804400D03*
D25*
X127290000Y-45624400D03*
X135930000Y-45624400D03*
D24*
X135930000Y-49804400D03*
D23*
X128720000Y-49304400D03*
X134500000Y-49304400D03*
X148922000Y-51891400D03*
X153922000Y-51891400D03*
X144172000Y-47581400D03*
X158672000Y-47581400D03*
X158672000Y-53541400D03*
X144172000Y-53541400D03*
X118910000Y-118262400D03*
X116370000Y-118262400D03*
X118910000Y-115722400D03*
X116370000Y-115722400D03*
X118910000Y-113182400D03*
X116370000Y-113182400D03*
X118910000Y-110642400D03*
X116370000Y-110642400D03*
X118910000Y-108102400D03*
X116370000Y-108102400D03*
X118910000Y-105562400D03*
X116370000Y-105562400D03*
X118910000Y-103022400D03*
X116370000Y-103022400D03*
X118910000Y-100482400D03*
X116370000Y-100482400D03*
X118910000Y-97942400D03*
X116370000Y-97942400D03*
X118910000Y-95402400D03*
X116370000Y-95402400D03*
X118910000Y-92862400D03*
X116370000Y-92862400D03*
X118910000Y-90322400D03*
X116370000Y-90322400D03*
X118910000Y-87782400D03*
X116370000Y-87782400D03*
X118910000Y-85242400D03*
X116370000Y-85242400D03*
X118910000Y-82702400D03*
X116370000Y-82702400D03*
X118910000Y-80162400D03*
X116370000Y-80162400D03*
X118910000Y-77622400D03*
X116370000Y-77622400D03*
X118910000Y-75082400D03*
X116370000Y-75082400D03*
X118910000Y-72542400D03*
X116370000Y-72542400D03*
X118910000Y-70002400D03*
X116370000Y-70002400D03*
X118910000Y-67462400D03*
X116370000Y-67462400D03*
X118910000Y-64922400D03*
X116370000Y-64922400D03*
X118910000Y-62382400D03*
X116370000Y-62382400D03*
M02*
