M48
; DRILL file {KiCad (5.1.10)-1} date 10/29/21 17:34:37
; FORMAT={-:-/ absolute / metric / decimal}
; #@! TF.CreationDate,2021-10-29T17:34:37+08:00
; #@! TF.GenerationSoftware,Kicad,Pcbnew,(5.1.10)-1
; #@! TF.FileFunction,Plated,1,2,PTH
FMAT,2
METRIC
T1C0.400
T2C0.600
T3C0.900
T4C1.000
T5C1.016
T6C3.000
%
G90
G05
T1
X114.991Y-77.877
X120.118Y-74.004
X120.306Y-77.619
X121.323Y-78.79
X121.712Y-56.546
X121.713Y-101.277
X122.72Y-68.666
X124.752Y-80.289
X125.172Y-119.64
X125.387Y-80.289
X126.022Y-80.289
X126.784Y-80.289
X127.443Y-116.947
X127.546Y-80.289
X127.75Y-64.516
X127.844Y-65.442
X128.135Y-88.592
X128.308Y-80.289
X128.956Y-103.1
X129.07Y-80.289
X129.204Y-117.318
X129.832Y-80.289
X130.594Y-80.289
X130.594Y-81.051
X130.594Y-81.813
X130.594Y-82.575
X130.594Y-83.337
X130.87Y-85.713
X130.88Y-89.713
X131.019Y-105.745
X131.019Y-117.318
X131.031Y-125.456
X131.383Y-91.344
X131.991Y-72.688
X133.108Y-96.258
X133.447Y-89.651
X133.505Y-83.683
X133.688Y-103.053
X134.537Y-90.212
X135.014Y-69.112
X135.244Y-98.409
X135.33Y-77.305
X135.649Y-88.952
X136.448Y-124.086
X136.606Y-93.8
X137.013Y-103.763
X137.136Y-91.152
X137.204Y-86.546
X137.782Y-72.032
X137.864Y-79.623
X137.887Y-107.417
X137.951Y-99.996
X138.001Y-86.972
X138.038Y-91.147
X138.611Y-115.219
X138.712Y-89.509
X138.926Y-106.886
X138.968Y-100.151
X139.194Y-124.77
X139.422Y-99.165
X139.596Y-87.703
X139.596Y-77.867
X139.967Y-118.549
X140.264Y-91.161
X140.879Y-106.897
X140.897Y-107.764
X141.059Y-108.894
X141.169Y-58.242
X141.171Y-98.354
X141.444Y-100.404
X142.053Y-93.582
X142.101Y-88.516
X142.177Y-119.032
X142.214Y-84.443
X142.618Y-53.513
X143.01Y-98.106
X143.548Y-121.985
X143.604Y-118.499
X143.915Y-98.506
X144.52Y-118.563
X144.67Y-92.015
X144.784Y-88.223
X144.795Y-90.314
X144.884Y-89.514
X144.924Y-56.721
X145.379Y-88.852
X145.429Y-97.119
X145.482Y-71.145
X145.616Y-106.068
X145.729Y-122.32
X146.269Y-95.395
X146.611Y-121.929
X146.765Y-93.437
X146.871Y-107.864
X147.462Y-65.334
X147.474Y-106.101
X147.547Y-56.237
X147.596Y-96.507
X148.04Y-106.705
X148.464Y-91.178
X148.835Y-121.882
X148.842Y-111.189
X149.092Y-60.022
X149.239Y-114.614
X149.524Y-98.258
X149.592Y-118.25
X149.594Y-117.412
X149.665Y-56.996
X149.691Y-115.436
X149.764Y-56.144
X149.943Y-112.376
X149.995Y-119.087
X150.007Y-108.546
X150.022Y-111.556
X150.024Y-110.71
X150.028Y-113.626
X150.041Y-93.283
X150.241Y-103.93
X150.415Y-96.731
X150.593Y-124.715
X151.016Y-103.175
X152.542Y-114.729
X152.595Y-108.909
X152.604Y-113.699
X152.658Y-105.727
X153.603Y-87.819
X154.132Y-58.551
X154.53Y-96.013
X154.652Y-61.808
X154.716Y-56.114
X154.778Y-85.613
X155.275Y-59.609
X155.328Y-56.812
X155.339Y-87.764
X155.586Y-122.844
X155.718Y-100.474
X155.953Y-87.139
X156.489Y-90.809
X156.825Y-55.876
X157.273Y-90.423
X157.899Y-91.082
X158.48Y-99.447
X159.323Y-98.349
X160.874Y-84.172
X161.112Y-55.209
T3
X144.172Y-47.581
X144.172Y-53.541
X158.672Y-47.581
X158.672Y-53.541
T4
X122.72Y-81.432
X122.72Y-83.972
X122.72Y-86.512
X122.72Y-89.052
X122.72Y-91.592
X122.72Y-94.132
X122.72Y-96.672
X122.72Y-99.212
X122.72Y-102.992
X122.72Y-105.532
X122.72Y-108.072
X122.72Y-110.612
X122.72Y-113.152
X122.72Y-115.692
X122.72Y-118.232
X125.26Y-102.992
X125.26Y-105.532
X125.26Y-108.072
X125.26Y-110.612
X125.26Y-113.152
X125.26Y-115.692
X125.26Y-118.232
X127.673Y-55.143
X130.213Y-55.143
X132.753Y-55.143
X135.039Y-60.731
X135.293Y-55.143
X137.579Y-60.731
X140.119Y-60.731
X142.659Y-60.731
X143.421Y-127.914
X143.421Y-130.454
X145.961Y-127.914
X145.961Y-130.454
X148.374Y-58.699
X148.374Y-61.239
X148.374Y-63.779
X148.501Y-127.914
X148.501Y-130.454
X151.041Y-127.914
X151.041Y-130.454
X153.581Y-127.914
X153.581Y-130.454
X156.121Y-127.914
X156.121Y-130.454
X158.661Y-127.914
X158.661Y-130.454
X160.693Y-86.766
X160.693Y-89.306
X160.693Y-91.846
X160.693Y-94.386
X160.693Y-96.926
X160.693Y-99.466
X160.693Y-102.006
X160.693Y-104.546
X161.201Y-127.914
X161.201Y-130.454
T5
X116.37Y-62.382
X116.37Y-64.922
X116.37Y-67.462
X116.37Y-70.002
X116.37Y-72.542
X116.37Y-75.082
X116.37Y-77.622
X116.37Y-80.162
X116.37Y-82.702
X116.37Y-85.242
X116.37Y-87.782
X116.37Y-90.322
X116.37Y-92.862
X116.37Y-95.402
X116.37Y-97.942
X116.37Y-100.482
X116.37Y-103.022
X116.37Y-105.562
X116.37Y-108.102
X116.37Y-110.642
X116.37Y-113.182
X116.37Y-115.722
X116.37Y-118.262
X118.91Y-62.382
X118.91Y-64.922
X118.91Y-67.462
X118.91Y-70.002
X118.91Y-72.542
X118.91Y-75.082
X118.91Y-77.622
X118.91Y-80.162
X118.91Y-82.702
X118.91Y-85.242
X118.91Y-87.782
X118.91Y-90.322
X118.91Y-92.862
X118.91Y-95.402
X118.91Y-97.942
X118.91Y-100.482
X118.91Y-103.022
X118.91Y-105.562
X118.91Y-108.102
X118.91Y-110.642
X118.91Y-113.182
X118.91Y-115.722
X118.91Y-118.262
X164.63Y-62.382
X164.63Y-64.922
X164.63Y-67.462
X164.63Y-70.002
X164.63Y-72.542
X164.63Y-75.082
X164.63Y-77.622
X164.63Y-80.162
X164.63Y-82.702
X164.63Y-85.242
X164.63Y-87.782
X164.63Y-90.322
X164.63Y-92.862
X164.63Y-95.402
X164.63Y-97.942
X164.63Y-100.482
X164.63Y-103.022
X164.63Y-105.562
X164.63Y-108.102
X164.63Y-110.642
X164.63Y-113.182
X164.63Y-115.722
X164.63Y-118.262
X167.17Y-62.382
X167.17Y-64.922
X167.17Y-67.462
X167.17Y-70.002
X167.17Y-72.542
X167.17Y-75.082
X167.17Y-77.622
X167.17Y-80.162
X167.17Y-82.702
X167.17Y-85.242
X167.17Y-87.782
X167.17Y-90.322
X167.17Y-92.862
X167.17Y-95.402
X167.17Y-97.942
X167.17Y-100.482
X167.17Y-103.022
X167.17Y-105.562
X167.17Y-108.102
X167.17Y-110.642
X167.17Y-113.182
X167.17Y-115.722
X167.17Y-118.262
T6
X118.465Y-46.697
X118.465Y-128.232
X165.075Y-46.697
X165.075Y-128.232
T2
G00X127.29Y-45.924
M15
G01X127.29Y-45.324
M16
G05
G00X127.29Y-50.354
M15
G01X127.29Y-49.254
M16
G05
G00X135.93Y-45.924
M15
G01X135.93Y-45.324
M16
G05
G00X135.93Y-50.354
M15
G01X135.93Y-49.254
M16
G05
T0
M30
