%TF.GenerationSoftware,KiCad,Pcbnew,(5.1.10)-1*%
%TF.CreationDate,2021-10-29T17:34:37+08:00*%
%TF.ProjectId,project,70726f6a-6563-4742-9e6b-696361645f70,rev?*%
%TF.SameCoordinates,Original*%
%TF.FileFunction,Profile,NP*%
%FSLAX46Y46*%
G04 Gerber Fmt 4.6, Leading zero omitted, Abs format (unit mm)*
G04 Created by KiCad (PCBNEW (5.1.10)-1) date 2021-10-29 17:34:37*
%MOMM*%
%LPD*%
G01*
G04 APERTURE LIST*
%TA.AperFunction,Profile*%
%ADD10C,0.002540*%
%TD*%
%TA.AperFunction,Profile*%
%ADD11C,0.100000*%
%TD*%
G04 APERTURE END LIST*
D10*
X169075100Y-125882400D02*
X169075100Y-116357400D01*
X114465100Y-125882400D02*
X114465100Y-116357400D01*
X114465100Y-125882400D02*
G75*
G03*
X120815100Y-132232400I6350000J0D01*
G01*
X130340100Y-132232400D02*
X120815100Y-132232400D01*
X148120100Y-132232400D02*
X162725100Y-132232400D01*
X130340100Y-132232400D02*
X148120100Y-132232400D01*
X162725100Y-132232400D02*
G75*
G03*
X169075100Y-125882400I0J6350000D01*
G01*
X153200100Y-42697400D02*
X162725100Y-42697400D01*
X169075100Y-49682400D02*
X169075100Y-49047400D01*
X169075100Y-49047400D02*
G75*
G03*
X162725100Y-42697400I-6350000J0D01*
G01*
X120815100Y-42697400D02*
G75*
G03*
X114465100Y-49047400I0J-6350000D01*
G01*
X135420100Y-42697400D02*
X120815100Y-42697400D01*
X153200100Y-42697400D02*
X135420100Y-42697400D01*
X169075100Y-116357400D02*
X169075100Y-49682400D01*
X114465100Y-49047400D02*
X114465100Y-116357400D01*
D11*
%TO.C,J1*%
X144622000Y-53541400D02*
X144622000Y-54441400D01*
X143722000Y-54441400D02*
X143722000Y-53541400D01*
X143722000Y-53541400D02*
X143722000Y-52641400D01*
X144622000Y-52641400D02*
X144622000Y-53541400D01*
X159122000Y-53541400D02*
X159122000Y-54441400D01*
X158222000Y-54441400D02*
X158222000Y-53541400D01*
X158222000Y-53541400D02*
X158222000Y-52641400D01*
X159122000Y-52641400D02*
X159122000Y-53541400D01*
X159122000Y-47581400D02*
X159122000Y-48181400D01*
X158222000Y-48181400D02*
X158222000Y-47581400D01*
X158222000Y-47581400D02*
X158222000Y-46981400D01*
X159122000Y-46981400D02*
X159122000Y-47581400D01*
X144622000Y-47581400D02*
X144622000Y-48181400D01*
X143722000Y-48181400D02*
X143722000Y-47581400D01*
X143722000Y-47581400D02*
X143722000Y-46981400D01*
X144622000Y-46981400D02*
X144622000Y-47581400D01*
X144172000Y-46531400D02*
G75*
G02*
X144622000Y-46981400I0J-450000D01*
G01*
X143722000Y-46981400D02*
G75*
G02*
X144172000Y-46531400I450000J0D01*
G01*
X144172000Y-48631400D02*
G75*
G02*
X143722000Y-48181400I0J450000D01*
G01*
X144622000Y-48181400D02*
G75*
G02*
X144172000Y-48631400I-450000J0D01*
G01*
X158672000Y-46531400D02*
G75*
G02*
X159122000Y-46981400I0J-450000D01*
G01*
X158222000Y-46981400D02*
G75*
G02*
X158672000Y-46531400I450000J0D01*
G01*
X158672000Y-48631400D02*
G75*
G02*
X158222000Y-48181400I0J450000D01*
G01*
X159122000Y-48181400D02*
G75*
G02*
X158672000Y-48631400I-450000J0D01*
G01*
X158672000Y-52191400D02*
G75*
G02*
X159122000Y-52641400I0J-450000D01*
G01*
X158222000Y-52641400D02*
G75*
G02*
X158672000Y-52191400I450000J0D01*
G01*
X158672000Y-54891400D02*
G75*
G02*
X158222000Y-54441400I0J450000D01*
G01*
X159122000Y-54441400D02*
G75*
G02*
X158672000Y-54891400I-450000J0D01*
G01*
X144172000Y-52191400D02*
G75*
G02*
X144622000Y-52641400I0J-450000D01*
G01*
X143722000Y-52641400D02*
G75*
G02*
X144172000Y-52191400I450000J0D01*
G01*
X144172000Y-54891400D02*
G75*
G02*
X143722000Y-54441400I0J450000D01*
G01*
X144622000Y-54441400D02*
G75*
G02*
X144172000Y-54891400I-450000J0D01*
G01*
%TD*%
M02*
